<svg viewBox="0 0 48 48" xmlns="http://www.w3.org/2000/svg" xmlns:xlink="http://www.w3.org/1999/xlink" width="48.000000" height="48.000000" fill="none" clip-path="url(#clipPath_5)" customFrame="url(#clipPath_5)">
	<defs>
		<clipPath id="clipPath_5">
			<rect width="48.000000" height="48.000000" x="0.000000" y="0.000000" rx="24.000000" fill="rgb(255,255,255)" />
		</clipPath>
	</defs>
	<rect id="icon_person" width="48.000000" height="48.000000" x="0.000000" y="0.000000" rx="24.000000" fill="rgb(235,240,244)" />
	<path id="Vector" d="M32 35L32 32.6667C32 31.429 31.5184 30.242 30.6611 29.3668C29.8037 28.4917 28.641 28 27.4286 28L20.5714 28C19.359 28 18.1962 28.4917 17.3389 29.3668C16.4816 30.242 16 31.429 16 32.6667L16 35M24 23.3333C21.4753 23.3333 19.4286 21.244 19.4286 18.6667C19.4286 16.0893 21.4753 14 24 14C26.5247 14 28.5714 16.0893 28.5714 18.6667C28.5714 21.244 26.5247 23.3333 24 23.3333Z" fill-rule="evenodd" stroke="rgb(55.6086,63.5407,83.9375)" stroke-linecap="round" stroke-linejoin="round" stroke-width="2" />
</svg>
