<svg viewBox="0 0 40 40" xmlns="http://www.w3.org/2000/svg" xmlns:xlink="http://www.w3.org/1999/xlink" width="40.000000" height="40.000000" fill="none">
	<rect id="icons03" width="40.000000" height="40.000000" x="0.000000" y="0.000000" fill="rgb(255,255,255)" fill-opacity="0" />
	<g id="Group">
		<g id="Group">
			<g id="Group">
				<path id="Vector" d="M27.2222 5.55566L12.7778 5.55566C8.80589 5.55566 5.55554 8.80461 5.55554 12.7779L5.55554 27.2223C5.55554 31.1942 8.80589 34.4446 12.7778 34.4446L27.2222 34.4446C31.1941 34.4446 34.4444 31.1942 34.4444 27.2223L34.4444 12.7779C34.4444 8.80461 31.1941 5.55566 27.2222 5.55566ZM20 26.0184C16.6756 26.0184 13.9813 23.323 13.9813 20.0001C13.9813 16.6757 16.6756 13.9815 20 13.9815C23.3229 13.9815 26.0186 16.6757 26.0186 20.0001C26.0186 23.323 23.3229 26.0184 20 26.0184ZM27.8242 13.9815C26.826 13.9815 26.0186 13.1729 26.0186 12.1759C26.0186 11.1789 26.826 10.3704 27.8242 10.3704C28.8223 10.3704 29.6297 11.1789 29.6297 12.1759C29.6297 13.1729 28.8223 13.9815 27.8242 13.9815Z" fill="rgb(235,240,244)" fill-rule="nonzero" />
			</g>
		</g>
	</g>
</svg>
