<svg viewBox="0 0 40 40" xmlns="http://www.w3.org/2000/svg" xmlns:xlink="http://www.w3.org/1999/xlink" width="40.000000" height="40.000000" fill="none" customFrame="#000000">
	<rect id="icons02" width="40.000000" height="40.000000" x="0.000000" y="0.000000" />
	<g id="Group">
		<g id="Group">
			<path id="Vector" d="M36.1538 9.82392C34.9333 10.3593 33.6328 10.7142 32.2769 10.8865C33.6718 10.0537 34.7364 8.74494 35.2369 7.1675C33.9364 7.94289 32.5005 8.49058 30.9702 8.79622C29.7354 7.48135 27.9754 6.66699 26.0554 6.66699C22.3302 6.66699 19.3313 9.69058 19.3313 13.3972C19.3313 13.9306 19.3764 14.4434 19.4872 14.9316C13.8933 14.6588 8.94357 11.9778 5.61844 7.89366C5.03793 8.90084 4.69742 10.0537 4.69742 11.2947C4.69742 13.6249 5.89742 15.6906 7.68613 16.8865C6.60511 16.866 5.54459 16.5521 4.64613 16.0578C4.64613 16.0783 4.64613 16.1049 4.64613 16.1316C4.64613 19.4014 6.97844 22.1172 10.0369 22.7429C9.48921 22.8926 8.89229 22.9644 8.2728 22.9644C7.84203 22.9644 7.40716 22.9398 6.99895 22.8496C7.87075 25.5142 10.3446 27.4731 13.2861 27.5367C10.9969 29.3275 8.09024 30.4065 4.94357 30.4065C4.39177 30.4065 3.86254 30.3819 3.33331 30.3142C6.31383 32.2362 9.84613 33.3337 13.6554 33.3337C26.0369 33.3337 32.8061 23.0772 32.8061 14.187C32.8061 13.8896 32.7959 13.6024 32.7815 13.3172C34.1169 12.3696 35.239 11.186 36.1538 9.82392Z" fill="rgb(235,240,244)" fill-rule="nonzero" />
		</g>
	</g>
</svg>
