<svg viewBox="0 0 36 36" xmlns="http://www.w3.org/2000/svg" xmlns:xlink="http://www.w3.org/1999/xlink" width="36.000000" height="36.000000" fill="none" clip-path="url(#clipPath_4)" customFrame="url(#clipPath_4)">
	<defs>
		<clipPath id="clipPath_4">
			<rect width="36.000000" height="36.000000" x="0.000000" y="0.000000" rx="4.000000" fill="rgb(255,255,255)" transform="matrix(6.12323e-17,-1,1,6.12323e-17,0,36)" />
		</clipPath>
	</defs>
	<rect id="icon_dropdown" width="34.000000" height="34.000000" x="1.000000" y="1.000000" rx="3.000000" stroke="rgb(235,240,244)" stroke-width="2" transform="matrix(6.12323e-17,-1,1,6.12323e-17,0,36)" />
	<path id="Vector" d="M0.707107 -0.707107C0.316583 -1.09763 -0.316583 -1.09763 -0.707107 -0.707107C-1.09763 -0.316583 -1.09763 0.316583 -0.707107 0.707107L0.707107 -0.707107ZM9 9L8.29289 9.70711C8.68342 10.0976 9.31658 10.0976 9.70711 9.70711L9 9ZM18.7071 0.707107C19.0976 0.316583 19.0976 -0.316583 18.7071 -0.707107C18.3166 -1.09763 17.6834 -1.09763 17.2929 -0.707107L18.7071 0.707107ZM-0.707107 0.707107L8.29289 9.70711L9.70711 8.29289L0.707107 -0.707107L-0.707107 0.707107ZM9.70711 9.70711L18.7071 0.707107L17.2929 -0.707107L8.29289 8.29289L9.70711 9.70711Z" fill-rule="nonzero" stroke="rgb(235,240,244)" stroke-linecap="round" stroke-linejoin="round" stroke-width="2" transform="matrix(6.12323e-17,-1,1,6.12323e-17,13.5,27)" />
</svg>
