<svg viewBox="0 0 249.616 60" xmlns="http://www.w3.org/2000/svg" xmlns:xlink="http://www.w3.org/1999/xlink" width="249.615662" height="60.000000" fill="none" customFrame="#000000">
	<defs>
		<linearGradient id="paint_linear_8" x1="0" x2="99.8046799" y1="1.73771286" y2="1.73771286" gradientUnits="userSpaceOnUse">
			<stop stop-color="rgb(235,240,244)" offset="0" stop-opacity="1" />
			<stop stop-color="rgb(56,64,84)" offset="1" stop-opacity="1" />
		</linearGradient>
		<linearGradient id="paint_linear_9" x1="99.7172928" x2="-0.000244140625" y1="1.71374512" y2="1.71372986" gradientUnits="userSpaceOnUse">
			<stop stop-color="rgb(235,240,244)" offset="0" stop-opacity="1" />
			<stop stop-color="rgb(56,64,84)" offset="1" stop-opacity="1" />
		</linearGradient>
		<linearGradient id="paint_linear_10" x1="0" x2="18.6943035" y1="1.70996761" y2="1.70996487" gradientUnits="userSpaceOnUse">
			<stop stop-color="rgb(235,240,244)" offset="0" stop-opacity="1" />
			<stop stop-color="rgb(56,64,84)" offset="1" stop-opacity="1" />
		</linearGradient>
	</defs>
	<rect id="logo" width="249.615646" height="60.000000" x="0.000000" y="0.000000" />
	<path id="path14" d="M0 0.37831L0 43.8209L2.54639 43.8209L2.6725 2.76166L120.897 3.13997L120.897 0L0 0.37831Z" fill="rgb(235,240,244)" fill-rule="nonzero" transform="matrix(1,0,0,-1,0.549377,59.8281)" />
	<path id="path16" d="M32.9206 14.5246C32.9206 16.5082 32.5948 18.2597 31.9428 19.7806C31.3045 21.3026 30.3541 22.5788 29.0908 23.6103C27.8277 24.657 26.2524 25.4439 24.3647 25.9748C22.4904 26.517 20.3107 26.7881 17.8253 26.7881C15.34 26.7881 13.1464 26.517 11.2451 25.9748C9.35724 25.4313 7.77515 24.6368 6.49861 23.5901C5.22206 22.5586 4.25762 21.2749 3.6058 19.7402C2.95384 18.2194 2.62799 16.4804 2.62799 14.5246C2.62799 12.5422 2.95384 10.7906 3.6058 9.26985C4.25762 7.74778 5.22206 6.46533 6.49861 5.41867C7.77515 4.38715 9.35724 3.599 11.2451 3.05549C13.1464 2.52586 15.34 2.26104 17.8253 2.26104C20.3107 2.26104 22.4904 2.52586 24.3647 3.05549C26.2524 3.599 27.8277 4.38715 29.0908 5.41867C30.3541 6.46533 31.3045 7.74778 31.9428 9.26985C32.5948 10.7906 32.9206 12.5422 32.9206 14.5246M35.5488 14.5246C35.5488 12.0126 35.0937 9.83984 34.1838 8.0063C33.274 6.18663 32.0244 4.67844 30.4353 3.48424C28.8464 2.30139 26.9722 1.42624 24.8127 0.85499C22.6534 0.285003 20.3242 0 17.8253 0C15.3127 0 12.9701 0.285003 10.797 0.85499C8.62407 1.42624 6.73618 2.30139 5.13366 3.48424C3.53114 4.67844 2.27478 6.18663 1.36494 8.0063C0.45498 9.83984 0 12.0126 0 14.5246C0 16.1954 0.210592 17.7099 0.631525 19.0681C1.05258 20.4401 1.64338 21.662 2.40391 22.7352C3.16431 23.8209 4.08108 24.7579 5.15409 25.546C6.24047 26.3342 7.44261 26.9861 8.75989 27.5019C10.0908 28.0315 11.5168 28.4186 13.0379 28.6633C14.559 28.9218 16.155 29.0504 17.8253 29.0504C20.3242 29.0504 22.6534 28.7654 24.8127 28.1942C26.9722 27.6242 28.8464 26.7415 30.4353 25.546C32.0244 24.3644 33.274 22.8575 34.1838 21.0239C35.0937 19.2043 35.5488 17.0378 35.5488 14.5246Z" fill="rgb(235,240,244)" fill-rule="nonzero" transform="matrix(1,0,0,-1,20.9816,44.5488)" />
	<path id="path18" d="M32.9209 14.5246C32.9209 16.5082 32.5948 18.2597 31.9431 19.7806C31.3049 21.3026 30.3541 22.5788 29.091 23.6103C27.8281 24.657 26.2526 25.4439 24.3647 25.9748C22.4906 26.517 20.3108 26.7881 17.8253 26.7881C15.34 26.7881 13.1468 26.517 11.2451 25.9748C9.35762 25.4313 7.7754 24.6368 6.49873 23.5901C5.22218 22.5586 4.25787 21.2749 3.60592 19.7402C2.95397 18.2194 2.62799 16.4804 2.62799 14.5246C2.62799 12.5422 2.95397 10.7906 3.60592 9.26985C4.25787 7.74778 5.22218 6.46533 6.49873 5.41867C7.7754 4.38715 9.35762 3.599 11.2451 3.05549C13.1468 2.52586 15.34 2.26104 17.8253 2.26104C20.3108 2.26104 22.4906 2.52586 24.3647 3.05549C26.2526 3.599 27.8281 4.38715 29.091 5.41867C30.3541 6.46533 31.3049 7.74778 31.9431 9.26985C32.5948 10.7906 32.9209 12.5422 32.9209 14.5246M35.5489 14.5246C35.5489 12.0126 35.094 9.83984 34.1838 8.0063C33.274 6.18663 32.0247 4.67844 30.4357 3.48424C28.8464 2.30139 26.9722 1.42624 24.8127 0.85499C22.6534 0.285003 20.3242 0 17.8253 0C15.313 0 12.9701 0.285003 10.7972 0.85499C8.62407 1.42624 6.73643 2.30139 5.13366 3.48424C3.53126 4.67844 2.27503 6.18663 1.36519 8.0063C0.454978 9.83984 0 12.0126 0 14.5246C0 16.1954 0.21059 17.7099 0.631649 19.0681C1.05258 20.4401 1.64338 21.662 2.40416 22.7352C3.16456 23.8209 4.0812 24.7579 5.15434 25.546C6.24072 26.3342 7.44261 26.9861 8.75988 27.5019C10.0908 28.0315 11.5169 28.4186 13.0379 28.6633C14.5591 28.9218 16.155 29.0504 17.8253 29.0504C20.3242 29.0504 22.6534 28.7654 24.8127 28.1942C26.9722 27.6242 28.8464 26.7415 30.4357 25.546C32.0247 24.3644 33.274 22.8575 34.1838 21.0239C35.094 19.2043 35.5489 17.0378 35.5489 14.5246Z" fill="rgb(235,240,244)" fill-rule="nonzero" transform="matrix(1,0,0,-1,64.9714,44.5488)" />
	<path id="path20" d="M2.58714 14.8108L23.4075 27.9912L26.9523 27.9912L6.43757 14.5662L28.2146 0L23.8754 0L2.58714 14.261L2.58714 0L0 0L0 27.9912L2.58714 27.9912L2.58714 14.8108Z" fill="rgb(235,240,244)" fill-rule="nonzero" transform="matrix(1,0,0,-1,110.917,43.999)" />
	<path id="path22" d="M16.1551 25.5258L7.88398 9.71754L24.406 9.71754L16.1551 25.5258M29.4981 0L25.6481 7.37453L6.64186 7.37453L2.79067 0L0 0L14.6469 27.9912L17.6418 27.9912L32.29 0L29.4981 0Z" fill="rgb(235,240,244)" fill-rule="nonzero" transform="matrix(1,0,0,-1,143.621,43.999)" />
	<path id="path24" d="M23.3266 19.9445C23.3266 21.14 23.116 22.1034 22.6948 22.8373C22.2736 23.5838 21.5876 24.1614 20.6368 24.5687C19.6872 24.976 18.4376 25.2471 16.889 25.3833C15.3543 25.5334 13.4666 25.6078 11.2257 25.6078L2.54729 25.6078L2.54729 14.3619L11.1437 14.3619C13.3846 14.3619 15.2799 14.4237 16.8272 14.546C18.3758 14.6809 19.6318 14.947 20.5964 15.3405C21.5611 15.7478 22.2534 16.3115 22.6746 17.0315C23.1084 17.7642 23.3266 18.7352 23.3266 19.9445M2.54729 11.9786L2.54729 0L0 0L0 27.9912L13.9344 27.9912C16.0668 27.9912 17.894 27.8209 19.4149 27.4817C20.9357 27.1563 22.179 26.6532 23.1425 25.9748C24.121 25.3089 24.8335 24.4729 25.2824 23.4691C25.7301 22.4641 25.9546 21.2888 25.9546 19.9445C25.9546 17.8525 25.4048 16.1753 24.3039 14.9117C23.2043 13.6633 21.4312 12.807 18.9874 12.3455L28.541 0L25.343 0L16.3178 12.0605C15.9382 12.0328 15.5511 12.0126 15.1576 11.9987C14.7629 11.9861 14.3556 11.9786 13.9344 11.9786L2.54729 11.9786Z" fill="rgb(235,240,244)" fill-rule="nonzero" transform="matrix(1,0,0,-1,184.351,43.999)" />
	<path id="path26" d="M108.205 40.8688L108.205 0L105.427 0L105.427 40.8688L0 41.121L0 43.4439L118.064 43.6961L118.064 40.8688L108.205 40.8688Z" fill="rgb(235,240,244)" fill-rule="nonzero" transform="matrix(1,0,0,-1,122.204,43.999)" />
	<g id="g28">
		<g id="g30">
			<path id="path36" d="M123.509 0L0.549534 0L0.549534 0.549805L121.446 0.171495L121.446 0.549805L122.959 0.549805L122.959 2.93316L121.446 2.93316L121.446 3.31147L3.22203 2.93316L3.09593 43.9924L0.549534 43.9924L0.549534 0.549805L0.549534 0L0 0L0 44.5422L3.64532 44.5422L3.64532 3.48171L123.509 3.48171L123.509 0Z" fill="rgb(235,240,244)" fill-rule="nonzero" transform="matrix(1,0,0,-1,0,60)" />
			<path id="path38" d="M120.897 0L0 0.37831L120.897 0.37831L120.897 0ZM0 0.37831L0 43.8209L2.54639 43.8209L2.6725 2.76166L120.897 3.13997L120.897 2.76166L2.54639 2.76166L2.54639 43.8209L0 43.8209L0 0.37831Z" fill="rgb(235,240,244)" fill-rule="nonzero" transform="matrix(1,0,0,-1,0.54953,59.8281)" />
			<path id="path40" d="M1.51324 0L0 0L0 0.548549L0.96368 0.548549L0.96368 1.83355L0 1.83355L0 2.38335L1.51324 2.38335L1.51324 0Z" fill="rgb(235,240,244)" fill-rule="nonzero" transform="matrix(1,0,0,-1,121.446,59.4502)" />
			<path id="path42" d="M120.897 0L0 0L0.549337 0L0 0L0 43.4426L2.54639 43.4426L2.54639 2.38335L120.897 2.38335L120.897 1.83355L1.99706 1.83355L1.99706 42.8928L0.549337 42.8928L0.549337 0.548549L120.897 0.548549L120.897 0Z" fill="rgb(235,240,244)" fill-rule="nonzero" transform="matrix(1,0,0,-1,0.54953,59.4502)" />
		</g>
	</g>
	<g id="g44">
		<g id="g46">
			<path id="path52" d="M18.3772 0L18.3749 0C15.8208 0 13.4305 0.290047 11.2072 0.873905C8.97628 1.45902 7.02143 2.36318 5.35725 3.59143L5.35573 3.59269L5.35472 3.59269C3.68449 4.83733 2.36847 6.4174 1.42308 8.31021L1.42333 8.30895L1.42232 8.31146C0.467339 10.2358 -0.000126078 12.4968 2.55062e-08 15.0744C2.55062e-08 16.7919 0.216394 18.3619 0.656242 19.7806L0.655863 19.7793C1.09218 21.2005 1.70819 22.4779 2.50517 23.6027L2.50328 23.6002C3.2976 24.7352 4.25825 25.7162 5.37843 26.5384L5.37931 26.5397L5.38108 26.5409C6.50693 27.3568 7.75106 28.0315 9.10907 28.5636L9.10617 28.5624C10.477 29.1072 11.9426 29.5056 13.5004 29.7553L13.4956 29.7541C15.0494 30.0176 16.676 30.15 18.3749 30.15C20.9154 30.15 23.2925 29.86 25.5025 29.2761C27.7213 28.6897 29.664 27.7768 31.3152 26.5346L31.3126 26.5372C32.9713 25.3051 34.2807 23.7238 35.2256 21.8171L35.2247 21.8197C36.1804 19.9079 36.648 17.6532 36.6479 15.0744C36.648 12.4968 36.1802 10.2358 35.2256 8.31146L35.2247 8.31021C34.2798 6.41866 32.9716 4.83984 31.315 3.59394L31.3126 3.59269C29.6619 2.36444 27.7203 1.46029 25.5025 0.873905C23.2933 0.291308 20.9169 0 18.3772 0M1.18108 19.6179C0.759899 18.2597 0.549433 16.7453 0.549433 15.0744C0.549433 12.5624 1.00454 10.3896 1.91437 8.55611C2.82434 6.73644 4.0807 5.22825 5.68322 4.03405C7.28574 2.8512 9.17351 1.97604 11.3465 1.4048C13.5197 0.834809 15.8623 0.549805 18.3749 0.549805C20.8737 0.549805 23.203 0.834809 25.3623 1.4048C25.4128 1.41867 25.4633 1.43252 25.5136 1.44639C27.6094 2.01638 29.4333 2.87894 30.9848 4.03405C31.0469 4.08071 31.1084 4.12736 31.1694 4.17527C32.6711 5.34677 33.8591 6.80705 34.7334 8.55611C35.6148 10.3316 36.0694 12.4262 36.0969 14.8411C36.0978 14.918 36.0983 14.9962 36.0983 15.0744C36.0983 17.5876 35.6432 19.7541 34.7334 21.5738C33.8235 23.4073 32.574 24.9142 30.9848 26.0958C29.3959 27.2913 27.5218 28.174 25.3623 28.744C24.9536 28.8524 24.5389 28.9495 24.1181 29.0378C22.3151 29.4123 20.4009 29.6002 18.3749 29.6002C16.7043 29.6002 15.1086 29.4716 13.5874 29.2131C12.0663 28.9684 10.6403 28.5813 9.30919 28.0517C7.99204 27.5359 6.79003 26.884 5.70352 26.0958C4.63051 25.3077 3.71387 24.3707 2.95334 23.285C2.21652 22.2459 1.63922 21.0656 1.22093 19.7465C1.20757 19.7036 1.1942 19.6607 1.18108 19.6179Z" fill="rgb(235,240,244)" fill-rule="nonzero" transform="matrix(1,0,0,-1,20.4321,45.0986)" />
			<path id="path54" d="M0 0C2.49874 0 4.82799 0.285003 6.98738 0.85499C4.82811 0.285003 2.49886 0 0 0ZM7.1387 0.896589C9.23454 1.46658 11.0581 2.32914 12.6099 3.48424C11.0584 2.32914 9.23454 1.46658 7.1387 0.896589ZM12.7946 3.62547C14.2962 4.79697 15.484 6.25725 16.3584 8.0063C17.2397 9.78183 17.6946 11.8764 17.722 14.2913C17.6946 11.8764 17.24 9.78183 16.3585 8.0063C15.4842 6.25725 14.2962 4.79697 12.7946 3.62547ZM17.7234 14.5246C17.7234 17.0378 17.2682 19.2043 16.3584 21.0239C15.4484 22.8575 14.1991 24.3644 12.6099 25.546C11.0209 26.7415 9.1469 27.6242 6.98738 28.1942C6.5788 28.3026 6.16393 28.3997 5.74325 28.488C6.16405 28.3997 6.57868 28.3026 6.98738 28.1942C9.1469 27.6242 11.021 26.7415 12.6099 25.546C14.1991 24.3644 15.4487 22.8575 16.3585 21.0239C17.2683 19.2043 17.7234 17.0378 17.7234 14.5246Z" fill="rgb(235,240,244)" fill-rule="nonzero" transform="matrix(1,0,0,-1,38.8069,44.5488)" />
			<path id="path56" d="M15.1973 0C12.712 0 10.5184 0.264817 8.61714 0.794451C8.40831 0.85498 8.20327 0.918032 8.00188 0.983605C7.39709 1.18285 6.82609 1.4073 6.28877 1.66077C5.38789 2.08322 4.58184 2.5826 3.87061 3.15763C2.59407 4.20429 1.62963 5.48674 0.977804 7.0088C0.32585 8.52961 0 10.2812 0 12.2635C0 14.1589 0.305799 15.8499 0.917526 17.3354C0.937324 17.3833 0.957375 17.4312 0.977804 17.4792C0.993062 17.5157 1.00845 17.551 1.02408 17.5864C1.67503 19.0744 2.62396 20.3215 3.87061 21.3291C4.06418 21.488 4.26481 21.6406 4.4725 21.7881C4.48322 21.7957 4.49381 21.8032 4.50441 21.8108C5.65939 22.6217 7.03026 23.256 8.61701 23.7125C10.5184 24.256 12.712 24.5271 15.1973 24.5271C17.6827 24.5271 19.8621 24.256 21.7365 23.7125C23.6244 23.1828 25.1996 22.3959 26.4628 21.3493C27.7258 20.3178 28.6764 19.0416 29.3148 17.5195C29.9668 15.9987 30.2926 14.2471 30.2926 12.2635C30.2926 10.2812 29.9668 8.52961 29.3148 7.0088C28.6764 5.48674 27.7258 4.20429 26.4628 3.15763C26.1484 2.90038 25.8146 2.65952 25.4616 2.43254C25.46 2.43128 25.4585 2.43126 25.457 2.43C25.4547 2.42748 25.4523 2.42621 25.45 2.42495C24.3871 1.74525 23.1494 1.20176 21.7365 0.794451C21.5507 0.742748 21.3619 0.692297 21.17 0.645639C19.427 0.215627 17.4362 0 15.1973 0M8.76455 1.32408C10.6062 0.810844 12.7509 0.549805 15.1973 0.549805C15.1982 0.549805 15.1988 0.549805 15.1997 0.549805C17.645 0.549805 19.7749 0.810844 21.5872 1.32408L21.5847 1.32283C23.4154 1.84994 24.9198 2.60654 26.1152 3.58384L26.1124 3.58133C27.3092 4.5725 28.2017 5.77805 28.8083 7.22067L28.8092 7.22318L28.8098 7.22446C29.4274 8.66582 29.7431 10.3405 29.7432 12.2635C29.7431 14.1879 29.4274 15.8625 28.8098 17.3039L28.809 17.3051L28.8083 17.3077C28.202 18.7503 27.3103 19.947 26.1152 20.9243L26.1133 20.9256L26.1124 20.9268C24.9183 21.9155 23.4167 22.6708 21.5882 23.1841L21.5861 23.1841L21.5837 23.1853C19.772 23.7112 17.6429 23.9785 15.1973 23.9785C15.1965 23.9785 15.1959 23.9785 15.1951 23.9785C12.7508 23.9785 10.6077 23.7099 8.76808 23.1841L8.76922 23.1853C6.93908 22.6582 5.42837 21.8953 4.21878 20.9041L4.21853 20.9041L4.21601 20.9016C3.00794 19.9243 2.10302 18.7213 1.48348 17.2648L1.4836 17.2648L1.48272 17.2623C0.864816 15.8209 0.549557 14.1589 0.549431 12.2635C0.549557 10.3405 0.865194 8.66582 1.48272 7.22446C2.10214 5.78184 3.00819 4.57628 4.21878 3.58259L4.21601 3.5851C5.42597 2.60654 6.93795 1.84994 8.76897 1.32283L8.76455 1.32408Z" fill="rgb(235,240,244)" fill-rule="nonzero" transform="matrix(1,0,0,-1,23.6096,42.2871)" />
			<path id="path58" d="M15.1975 0C12.7121 0 10.5185 0.264817 8.61714 0.794451C8.40831 0.85498 8.20327 0.918032 8.00201 0.983606C8.20339 0.918032 8.40844 0.85498 8.61727 0.794451C10.5185 0.264817 12.7121 0 15.1975 0C17.4363 0 19.4271 0.215627 21.1701 0.645639C19.4271 0.215627 17.4363 0 15.1975 0M6.28889 1.66077C5.38801 2.08322 4.58196 2.5826 3.87074 3.15763C2.59394 4.20429 1.62976 5.48674 0.97793 7.00881C0.325976 8.52961 0 10.2812 0 12.2635C0 14.1589 0.305925 15.8499 0.917652 17.3354C0.305925 15.8499 0.000126226 14.1589 0.000126226 12.2635C0.000126226 10.2812 0.325976 8.52961 0.97793 7.00881C1.62976 5.48674 2.5942 4.20429 3.87074 3.15763C4.58196 2.5826 5.38801 2.08322 6.28889 1.66077ZM25.4502 2.42495C25.4524 2.42621 25.4548 2.42748 25.4571 2.43C25.4548 2.42748 25.4524 2.42621 25.4502 2.42495ZM25.4618 2.43254C25.8147 2.65952 26.1485 2.90038 26.4629 3.15763C26.1485 2.90038 25.8148 2.65952 25.4618 2.43254ZM29.315 7.00881C29.9669 8.52961 30.2928 10.2812 30.2928 12.2635C30.2928 10.2812 29.9669 8.52961 29.315 7.00881ZM1.02421 17.5864C1.67516 19.0744 2.62383 20.3215 3.87074 21.3291C2.62408 20.3215 1.67516 19.0744 1.02421 17.5864ZM4.47263 21.7881C4.48335 21.7957 4.49394 21.8033 4.50453 21.8108C4.49394 21.8033 4.48335 21.7957 4.47263 21.7881Z" fill="rgb(235,240,244)" fill-rule="nonzero" transform="matrix(1,0,0,-1,23.6094,42.2871)" />
			<path id="path60" d="M17.8255 0C15.3128 0 12.9702 0.285003 10.7971 0.85499C8.62407 1.42624 6.73631 2.30139 5.13379 3.48424C3.53127 4.67844 2.2749 6.18663 1.36494 8.0063C0.455106 9.83984 0 12.0126 0 14.5246C0 16.1954 0.210466 17.7099 0.631651 19.0681C0.210718 17.7099 0.000126226 16.1954 0.000126226 14.5246C0.000126226 12.0126 0.455107 9.83984 1.36507 8.0063C2.2749 6.18663 3.53127 4.67844 5.13379 3.48424C6.73631 2.30139 8.6242 1.42624 10.7971 0.85499C12.9702 0.285003 15.3128 0 17.8255 0ZM0.6715 19.1967C1.08978 20.5157 1.66709 21.6961 2.40391 22.7352C3.16444 23.8209 4.08108 24.7579 5.15409 25.546C6.2406 26.3342 7.44261 26.9861 8.75976 27.5019C10.0909 28.0315 11.5169 28.4186 13.0379 28.6633C14.5591 28.9218 16.1548 29.0504 17.8255 29.0504C19.8514 29.0504 21.7657 28.8625 23.5687 28.488C21.7659 28.8625 19.8513 29.0504 17.8255 29.0504C16.1551 29.0504 14.5591 28.9218 13.0381 28.6633C11.5169 28.4186 10.0909 28.0315 8.76001 27.5019C7.44274 26.9861 6.2406 26.3342 5.15422 25.546C4.08121 24.7579 3.16444 23.8209 2.40403 22.7352C1.66721 21.6961 1.08978 20.5157 0.6715 19.1967Z" fill="rgb(235,240,244)" fill-rule="nonzero" transform="matrix(1,0,0,-1,20.9815,44.5488)" />
			<path id="path62" d="M17.8253 0C15.3127 0 12.9701 0.285003 10.797 0.85499C8.62407 1.42624 6.73618 2.30139 5.13366 3.48424C3.53114 4.67844 2.27478 6.18663 1.36494 8.0063C0.45498 9.83984 0 12.0126 0 14.5246C0 16.1954 0.210592 17.7099 0.631525 19.0681C0.644639 19.1109 0.658007 19.1538 0.671374 19.1967C1.08966 20.5157 1.66708 21.6961 2.40391 22.7352C3.16431 23.8209 4.08108 24.7579 5.15409 25.546C6.24047 26.3342 7.44261 26.9861 8.75989 27.5019C10.0908 28.0315 11.5168 28.4186 13.0379 28.6633C14.559 28.9218 16.155 29.0504 17.8253 29.0504C19.8512 29.0504 21.7658 28.8625 23.5686 28.488C23.9893 28.3997 24.4041 28.3026 24.8127 28.1942C26.9722 27.6242 28.8462 26.7415 30.4353 25.546C32.0244 24.3644 33.2737 22.8575 34.1837 21.0239C35.0935 19.2043 35.5488 17.0378 35.5488 14.5246C35.5488 14.4464 35.5483 14.3682 35.5474 14.2913C35.5199 11.8764 35.065 9.78183 34.1837 8.0063C33.3093 6.25725 32.1215 4.79697 30.6199 3.62547C30.5589 3.57755 30.4973 3.5309 30.4353 3.48424C28.8834 2.32914 27.0599 1.46658 24.964 0.896589C24.9137 0.882718 24.8633 0.868861 24.8127 0.85499C22.6533 0.285003 20.3241 0 17.8253 0M5.45977 3.9256C7.00062 2.78941 8.8213 1.94199 10.9364 1.38714C13.0591 0.829759 15.3543 0.549805 17.8253 0.549805C20.2824 0.549805 22.5638 0.829759 24.6724 1.38714C26.7739 1.94199 28.5804 2.78942 30.1074 3.92435L30.105 3.92307C31.6269 5.06808 32.8175 6.50315 33.6923 8.2522L33.6916 8.25095C34.5564 9.99369 34.9992 12.0782 34.9993 14.5246C34.9992 16.9722 34.5564 19.0492 33.6923 20.778L33.6916 20.7793C32.8166 22.541 31.6272 23.9748 30.1074 25.1059L30.1065 25.1059L30.105 25.1072C28.5783 26.2547 26.7727 27.1084 24.6724 27.6633C22.5638 28.2207 20.2824 28.5006 17.8253 28.5006C16.1832 28.5006 14.6181 28.3745 13.1299 28.121L13.1275 28.121L13.1251 28.121C11.6405 27.8814 10.2541 27.5056 8.96291 26.9911L8.9614 26.9911L8.96027 26.9899C7.6836 26.4905 6.52383 25.86 5.47654 25.1009L5.47931 25.1034C4.45359 24.3506 3.58083 23.4577 2.85397 22.4199L2.85346 22.4186L2.85208 22.4174C2.12787 21.396 1.56242 20.2282 1.15674 18.9067L1.15624 18.9054C0.754223 17.6078 0.549431 16.1501 0.549431 14.5246C0.549557 12.0782 0.992181 9.99369 1.85712 8.25095L1.85624 8.2522C2.73077 6.50441 3.92723 5.06937 5.46216 3.92435L5.45977 3.9256Z" fill="rgb(235,240,244)" fill-rule="nonzero" transform="matrix(1,0,0,-1,20.9816,44.5488)" />
			<path id="path64" d="M17.2993 0C17.4913 0.0466582 17.68 0.0971094 17.8659 0.148812C19.2788 0.556125 20.5165 1.09962 21.5794 1.77931C20.5166 1.09962 19.2789 0.556125 17.8661 0.148812C17.6802 0.0971094 17.4913 0.0466582 17.2993 0M4.13127 0.337967C3.52648 0.53721 2.95535 0.762925 2.41815 1.01513C2.95548 0.761664 3.52648 0.53721 4.13127 0.337967ZM21.5864 1.78436C21.5879 1.78562 21.5894 1.78564 21.591 1.7869C21.5894 1.78564 21.5879 1.78562 21.5864 1.78436ZM22.5922 2.51199C23.8552 3.55865 24.8058 4.8411 25.4442 6.36317C24.8059 4.8411 23.8555 3.55865 22.5922 2.51199M26.422 11.6179C26.422 13.6015 26.0962 15.3531 25.4442 16.8739C24.8058 18.3959 23.8552 19.6721 22.5922 20.7036C21.329 21.7503 19.7538 22.5372 17.8659 23.0668C15.9915 23.6103 13.8121 23.8814 11.3267 23.8814C8.84135 23.8814 6.64778 23.6103 4.7464 23.0668C3.15964 22.6103 1.78877 21.976 0.633792 21.1652C1.78877 21.976 3.15964 22.6103 4.74652 23.0681C6.64778 23.6103 8.84135 23.8814 11.3267 23.8814C13.8121 23.8814 15.9918 23.6103 17.8661 23.0681C19.7538 22.5372 21.3291 21.7503 22.5922 20.7036C23.8555 19.6721 24.8059 18.3959 25.4442 16.8739C26.0962 15.3531 26.422 13.6015 26.422 11.6179M0 20.6835C0.193568 20.8424 0.394199 20.9949 0.601891 21.1425C0.394199 20.9949 0.193568 20.8424 0 20.6835Z" fill="rgb(235,240,244)" fill-rule="nonzero" transform="matrix(1,0,0,-1,27.4802,41.6416)" />
			<path id="path66" d="M15.7469 0C13.2227 0 10.9803 0.267339 9.01928 0.813366L9.01726 0.814622L9.01474 0.815878C7.0701 1.37452 5.41815 2.19294 4.07477 3.27868L4.07376 3.27994L4.072 3.2812C2.72925 4.38082 1.70668 5.74148 1.02232 7.34047C0.336192 8.94072 -0.000126068 10.7705 3.54486e-08 12.8121C-0.000126068 14.8285 0.33657 16.6444 1.02232 18.2446L1.02156 18.2421C1.70555 19.855 2.7285 21.2169 4.07288 22.3039C5.41639 23.4048 7.06935 24.2295 9.01474 24.7894L9.01222 24.7894L9.01575 24.7894C10.9782 25.3505 13.2218 25.6254 15.7469 25.6254C18.2721 25.6254 20.5022 25.3505 22.4391 24.7894L22.4347 24.7906C24.3818 24.2446 26.0307 23.4249 27.3626 22.3215L27.36 22.324C28.691 21.237 29.7006 19.8802 30.3711 18.2812L30.3694 18.285C31.0557 16.6835 31.3916 14.855 31.3916 12.8121C31.3916 10.7705 31.0557 8.94198 30.3694 7.34047L30.3711 7.34426C29.7007 5.74527 28.6923 4.38335 27.3629 3.28373L27.3616 3.28245L27.36 3.2812C26.0292 2.19419 24.3829 1.37452 22.4381 0.815878L22.4386 0.815878L22.4357 0.814622C20.4998 0.267334 18.2711 0 15.7469 0M8.55144 1.53215C8.7527 1.46658 8.95774 1.40353 9.16657 1.343C11.068 0.813366 13.2615 0.548549 15.7469 0.548549C17.9857 0.548549 19.9765 0.764176 21.7195 1.19419C21.9114 1.24085 22.1003 1.2913 22.2862 1.343C23.6991 1.75031 24.9368 2.2938 25.9996 2.9735C26.0019 2.97476 26.0043 2.97603 26.0065 2.97855C26.008 2.97981 26.0096 2.97982 26.0112 2.98109C26.3643 3.20807 26.698 3.44893 27.0123 3.70618C28.2756 4.75284 29.2261 6.03529 29.8644 7.55735C30.5164 9.07816 30.8422 10.8297 30.8422 12.8121C30.8422 14.7957 30.5164 16.5473 29.8644 18.0681C29.2261 19.5901 28.2756 20.8663 27.0123 21.8978C25.7493 22.9445 24.174 23.7314 22.2862 24.2623C20.412 24.8045 18.2323 25.0756 15.7469 25.0756C13.2615 25.0756 11.068 24.8045 9.1667 24.2623C7.57981 23.8045 6.20894 23.1702 5.05396 22.3594C5.04337 22.3518 5.03278 22.3442 5.02206 22.3367C4.81437 22.1891 4.61374 22.0365 4.42017 21.8777C3.17326 20.8701 2.22459 19.6229 1.57364 18.1349C1.55801 18.0996 1.54262 18.0643 1.52736 18.0277C1.50693 17.9798 1.48688 17.9319 1.46708 17.884C0.855358 16.3985 0.549433 14.7074 0.549433 12.8121C0.549433 10.8297 0.875409 9.07816 1.52736 7.55735C2.17919 6.03529 3.14338 4.75284 4.42017 3.70618C5.1314 3.13115 5.93744 2.63177 6.83833 2.20932C7.37553 1.95711 7.94665 1.7314 8.55144 1.53215Z" fill="rgb(235,240,244)" fill-rule="nonzero" transform="matrix(1,0,0,-1,23.06,42.8359)" />
		</g>
	</g>
	<g id="g68">
		<g id="g70">
			<path id="path76" d="M18.3769 0L18.3746 0C15.8207 0 13.4304 0.290047 11.207 0.873905C8.97628 1.45902 7.0213 2.36318 5.35686 3.59143L5.35548 3.59269L5.35447 3.59269C3.68436 4.83733 2.36834 6.4174 1.42295 8.31021L1.42282 8.31021L1.42232 8.31146C0.467213 10.2358 -0.000252105 12.4968 1.01997e-07 15.0744C1.01997e-07 16.7919 0.216138 18.3619 0.656113 19.7806L0.655608 19.7793C1.0918 21.2005 1.70819 22.4792 2.50516 23.6027L2.50327 23.6002C3.29735 24.7352 4.25813 25.7162 5.37856 26.5384L5.37918 26.5397L5.38107 26.5409C6.5068 27.3568 7.75094 28.0315 9.10882 28.5636L9.10604 28.5624C10.4769 29.1072 11.9424 29.5056 13.5001 29.7553L13.4954 29.7541C15.0492 30.0176 16.676 30.15 18.3746 30.15C20.9154 30.15 23.2925 29.86 25.5025 29.2761C27.721 28.6897 29.6638 27.7768 31.3151 26.5346L31.3127 26.5372C32.9711 25.3051 34.2804 23.7238 35.2253 21.8171L35.2244 21.8197C36.1805 19.9079 36.6477 17.6532 36.6476 15.0744C36.6477 12.4968 36.1803 10.2358 35.2253 8.31146L35.2246 8.31021C34.2798 6.41866 32.9715 4.83984 31.3152 3.59394L31.3147 3.59394L31.3127 3.59269C29.6616 2.36444 27.72 1.46029 25.5022 0.873905C23.293 0.291308 20.9169 0 18.3769 0M0.549307 15.0744C0.549307 12.5624 1.00428 10.3896 1.91425 8.55611C2.82433 6.73644 4.08045 5.22825 5.68284 4.03405C7.28549 2.8512 9.17338 1.97604 11.3464 1.4048C13.5194 0.834809 15.862 0.549805 18.3746 0.549805C20.8735 0.549805 23.2027 0.834809 25.362 1.4048C25.4126 1.41867 25.463 1.43252 25.5133 1.44639C27.6092 2.01638 29.433 2.87894 30.985 4.03405C32.574 5.22825 33.8233 6.73644 34.7331 8.55611C35.6433 10.3896 36.0982 12.5624 36.0982 15.0744C36.0982 17.5876 35.6433 19.7541 34.7331 21.5738C33.8233 23.4073 32.574 24.9142 30.985 26.0958C29.3957 27.2913 27.5215 28.174 25.362 28.744C25.2777 28.7667 25.193 28.7881 25.1082 28.8095C23.0205 29.3367 20.7759 29.6002 18.3746 29.6002C16.7043 29.6002 15.1083 29.4716 13.5872 29.2131C12.0662 28.9684 10.6401 28.5813 9.30919 28.0517C9.15484 27.9911 9.00201 27.9293 8.85081 27.865C7.71185 27.3808 6.66266 26.7919 5.7034 26.0958C4.63051 25.3077 3.71361 24.3707 2.95346 23.285C2.94148 23.2686 2.92975 23.2509 2.9179 23.2345C2.17427 22.174 1.59508 20.9684 1.18096 19.6179C0.766328 18.2812 0.555987 16.7932 0.54943 15.1538C0.54943 15.1273 0.549307 15.1009 0.549307 15.0744Z" fill="rgb(235,240,244)" fill-rule="nonzero" transform="matrix(1,0,0,-1,64.4222,45.0986)" />
			<path id="path78" d="M0.405168 0C2.501 0.569987 4.32458 1.43255 5.87679 2.58765C4.32483 1.43255 2.501 0.569987 0.405168 0ZM5.87679 2.58765C7.46556 3.78185 8.71512 5.29004 9.62483 7.10971C10.5349 8.94325 10.9899 11.116 10.9899 13.628C10.9899 16.1412 10.5349 18.3077 9.62483 20.1274C8.71512 21.9609 7.46556 23.4678 5.87679 24.6494C4.28738 25.8449 2.41336 26.7276 0.253844 27.2976C0.169481 27.3203 0.0848675 27.3417 0 27.3632C0.0848675 27.3417 0.169481 27.3203 0.253844 27.2976C2.41336 26.7276 4.28751 25.8449 5.87679 24.6494C7.46582 23.4678 8.71512 21.9609 9.62496 20.1274C10.5352 18.3077 10.99 16.1412 10.99 13.628C10.99 11.116 10.5352 8.94325 9.62496 7.10971C8.71512 5.29004 7.46582 3.78185 5.87679 2.58765Z" fill="rgb(235,240,244)" fill-rule="nonzero" transform="matrix(1,0,0,-1,89.5303,43.6523)" />
			<path id="path80" d="M15.1973 2.95993e-10C12.712 2.95993e-10 10.5188 0.264817 8.61714 0.794451C7.87616 1.00757 7.18208 1.2585 6.53517 1.54728C5.53442 1.99368 4.64614 2.5309 3.87074 3.15763C2.59419 4.20429 1.62988 5.48674 0.977928 7.0088C0.325974 8.52961 0 10.2812 0 12.2635C0 14.1891 0.31589 15.9041 0.947542 17.4073C0.95763 17.4313 0.967714 17.4552 0.977928 17.4792C0.993187 17.5157 1.0087 17.551 1.02434 17.5864C1.67516 19.0744 2.62408 20.3215 3.87074 21.3291C4.59886 21.9256 5.42635 22.4401 6.35321 22.8739C7.05144 23.1992 7.80617 23.4792 8.61714 23.7125C10.4591 24.2396 12.575 24.5107 14.9648 24.5271C15.0035 24.5271 15.0422 24.5271 15.0811 24.5271C15.1198 24.5271 15.1585 24.5271 15.1973 24.5271C17.6827 24.5271 19.8625 24.256 21.7367 23.7125C23.6244 23.1828 25.2 22.3959 26.4628 21.3493C27.7261 20.3178 28.6766 19.0416 29.3148 17.5195C29.9668 15.9987 30.2929 14.2471 30.2929 12.2635C30.2929 11.483 30.2422 10.7377 30.1411 10.0277C29.9853 8.93693 29.7099 7.93062 29.3148 7.0088C28.6766 5.48674 27.7261 4.20429 26.4628 3.15763C25.2 2.12611 23.6244 1.33796 21.7367 0.794451C19.9082 0.277427 17.7885 0.0138664 15.3779 0.00125611C15.3179 -4.92565e-06 15.2577 2.95993e-10 15.1973 2.95993e-10M8.76455 1.32408C10.6064 0.810844 12.7509 0.549805 15.1973 0.549805C15.1982 0.549805 15.1988 0.549805 15.1997 0.549805C17.6447 0.549805 19.7744 0.810849 21.5862 1.32283C23.4164 1.84994 24.9204 2.60654 26.1152 3.58384L26.1125 3.58133C27.3093 4.5725 28.2021 5.77805 28.8083 7.22067L28.8092 7.22318L28.8101 7.22446C29.4276 8.66582 29.7435 10.3405 29.7436 12.2635C29.7435 14.1866 29.4276 15.8625 28.8101 17.3039L28.8094 17.3051L28.8083 17.3077C28.2022 18.7503 27.3106 19.947 26.1152 20.9243L26.1142 20.9256L26.1125 20.9268C24.9186 21.9155 23.4167 22.6708 21.5882 23.1841L21.5853 23.1853L21.5837 23.1853C19.7724 23.7112 17.6429 23.9785 15.1973 23.9785C15.1965 23.9785 15.1959 23.9785 15.1951 23.9785C12.7508 23.9785 10.6081 23.7099 8.76821 23.1841L8.76922 23.1853C6.93946 22.6582 5.42837 21.8953 4.21891 20.9041L4.21626 20.9016C3.00819 19.9243 2.10328 18.7213 1.4836 17.2648L1.48298 17.2623C0.86507 15.8209 0.549556 14.1589 0.54943 12.2635C0.549556 10.3405 0.865322 8.66582 1.48298 7.22446C2.10239 5.78184 3.00832 4.57628 4.21891 3.58259L4.21626 3.5851C5.42597 2.60654 6.93833 1.84994 8.76922 1.32283L8.76455 1.32408Z" fill="rgb(235,240,244)" fill-rule="nonzero" transform="matrix(1,0,0,-1,67.5995,42.2871)" />
			<path id="path82" d="M15.1975 0C12.7121 0 10.5188 0.264817 8.61727 0.794451C10.5189 0.264817 12.7121 0 15.1975 0ZM15.378 0.00125611C17.7886 0.0138664 19.9083 0.277427 21.7368 0.794451C19.9082 0.277427 17.7885 0.0138664 15.378 0.00125611ZM6.5353 1.54728C5.53429 1.99368 4.64615 2.5309 3.87074 3.15763C2.5942 4.20429 1.63001 5.48674 0.978058 7.0088C0.326104 8.52961 0 10.2812 0 12.2635C0 14.1891 0.31602 15.9041 0.947671 17.4073C0.31602 15.9041 0.000129305 14.1891 0.000129305 12.2635C0.000129305 10.2812 0.326104 8.52961 0.978058 7.0088C1.63001 5.48674 2.59432 4.20429 3.87087 3.15763C4.64627 2.5309 5.53455 1.99368 6.5353 1.54728M30.1412 10.0277C30.2423 10.7377 30.293 11.483 30.293 12.2635C30.293 11.483 30.2425 10.7377 30.1412 10.0277ZM1.02447 17.5864C1.67528 19.0744 2.62409 20.3215 3.87074 21.3291C4.59886 21.9256 5.42635 22.4401 6.35334 22.8739C5.42648 22.4401 4.59899 21.9256 3.87087 21.3291C2.62421 20.3215 1.67528 19.0744 1.02447 17.5864ZM14.9649 24.5271C15.0036 24.5271 15.0424 24.5271 15.0812 24.5271C15.0424 24.5271 15.0036 24.5271 14.9649 24.5271Z" fill="rgb(235,240,244)" fill-rule="nonzero" transform="matrix(1,0,0,-1,67.5993,42.2871)" />
			<path id="path84" d="M17.8253 0C15.3127 0 12.9701 0.285003 10.7971 0.85499C8.62407 1.42624 6.73618 2.30139 5.13354 3.48424C3.53114 4.67844 2.27503 6.18663 1.36494 8.0063C0.454977 9.83984 0 12.0126 0 14.5246C0 12.0126 0.454978 9.83984 1.36519 8.0063C2.27503 6.18663 3.53126 4.67844 5.13366 3.48424C6.73643 2.30139 8.62407 1.42624 10.7972 0.85499C12.9701 0.285003 15.313 0 17.8253 0C20.3242 0 22.6534 0.285003 24.8127 0.85499C24.8633 0.868861 24.9137 0.882718 24.964 0.896589C24.9137 0.882718 24.8633 0.868861 24.8127 0.85499C22.6534 0.285003 20.3242 0 17.8253 0ZM0.000123148 14.604C0.00668052 16.2434 0.217022 17.7314 0.631649 19.0681C0.217148 17.7314 0.00668052 16.2434 0.000123148 14.604ZM0.631649 19.0681C1.04577 20.4186 1.62496 21.6242 2.36859 22.6847C1.62496 21.6242 1.04602 20.4186 0.631649 19.0681ZM2.40416 22.7352C3.16431 23.8209 4.0812 24.7579 5.15409 25.546C6.11336 26.2421 7.16254 26.831 8.3015 27.3152C7.16254 26.831 6.11336 26.2421 5.15434 25.546C4.0812 24.7579 3.16456 23.8209 2.40416 22.7352ZM24.5589 28.2597C22.4712 28.7868 20.2266 29.0504 17.8253 29.0504C16.155 29.0504 14.5591 28.9218 13.0379 28.6633C14.559 28.9218 16.155 29.0504 17.8253 29.0504C20.2266 29.0504 22.4712 28.7868 24.5589 28.2597Z" fill="rgb(235,240,244)" fill-rule="nonzero" transform="matrix(1,0,0,-1,64.9715,44.5488)" />
			<path id="path86" d="M17.8253 0C15.313 0 12.9701 0.285003 10.7972 0.85499C8.62407 1.42624 6.73643 2.30139 5.13366 3.48424C3.53126 4.67844 2.27503 6.18663 1.36519 8.0063C0.454978 9.83984 0 12.0126 0 14.5246C0 14.5511 0.000123148 14.5775 0.000123148 14.604C0.00668052 16.2434 0.217148 17.7314 0.631649 19.0681C1.04602 20.4186 1.62496 21.6242 2.36859 22.6847C2.38045 22.7011 2.39218 22.7188 2.40416 22.7352C3.16456 23.8209 4.0812 24.7579 5.15434 25.546C6.11336 26.2421 7.16254 26.831 8.3015 27.3152C8.4527 27.3795 8.60553 27.4413 8.75988 27.5019C10.0908 28.0315 11.5169 28.4186 13.0379 28.6633C14.5591 28.9218 16.155 29.0504 17.8253 29.0504C20.2266 29.0504 22.4712 28.7868 24.5589 28.2597C24.6437 28.2383 24.7283 28.2169 24.8127 28.1942C26.9722 27.6242 28.8462 26.7415 30.4356 25.546C32.0244 24.3644 33.274 22.8575 34.1837 21.0239C35.0938 19.2043 35.5488 17.0378 35.5488 14.5246C35.5488 12.0126 35.0938 9.83984 34.1837 8.0063C33.274 6.18663 32.0244 4.67844 30.4356 3.48424C28.8834 2.32914 27.0599 1.46658 24.964 0.896589C24.9137 0.882718 24.8633 0.868861 24.8127 0.85499C22.6534 0.285003 20.3242 0 17.8253 0M5.45964 3.9256C7.00074 2.78941 8.82142 1.94199 10.9367 1.38714C13.0593 0.829759 15.3545 0.549805 17.8253 0.549805C20.2824 0.549805 22.5638 0.829759 24.6726 1.38714C26.7739 1.94199 28.5804 2.78942 30.1078 3.92435L30.1054 3.92307C31.6266 5.06808 32.8171 6.50315 33.6919 8.25095C34.557 9.99369 34.9992 12.0782 34.9995 14.5246C34.9992 16.9722 34.5568 19.0492 33.6924 20.778L33.6916 20.7793C32.8169 22.541 31.6272 23.9748 30.1078 25.1059L30.1064 25.1059L30.1054 25.1072C28.5784 26.2547 26.7729 27.1084 24.6724 27.6633C22.5639 28.2207 20.2826 28.5006 17.8253 28.5006C16.1832 28.5006 14.6181 28.3745 13.1299 28.121L13.1284 28.121L13.1251 28.121C11.6407 27.8814 10.2541 27.5056 8.96291 26.9911L8.96165 26.9911L8.96026 26.9899C7.6836 26.4905 6.52395 25.86 5.47666 25.1009L5.47944 25.1034C4.45359 24.3506 3.58082 23.4577 2.85434 22.4199L2.85359 22.4186L2.85233 22.4174C2.12812 21.396 1.56242 20.2282 1.15687 18.9067L1.15788 18.9092L1.15649 18.9054C0.754223 17.6078 0.549553 16.1501 0.549553 14.5246C0.549679 12.0782 0.992055 9.99369 1.85712 8.25095C2.7314 6.50442 3.92774 5.06937 5.46216 3.92435L5.45964 3.9256Z" fill="rgb(235,240,244)" fill-rule="nonzero" transform="matrix(1,0,0,-1,64.9715,44.5488)" />
			<path id="path88" d="M8.84412 2.95993e-10C8.90453 2.95993e-10 8.96468 -4.92565e-06 9.0247 0.00125611C8.96468 -4.92565e-06 8.90453 2.95993e-10 8.84412 2.95993e-10ZM15.3835 0.794451C17.2712 1.33796 18.8468 2.12611 20.1096 3.15763C21.3729 4.20429 22.3234 5.48674 22.9616 7.0088C23.3567 7.93062 23.6321 8.93693 23.7879 10.0277C23.6321 8.93693 23.3568 7.93062 22.9619 7.0088C22.3237 5.48674 21.3729 4.20429 20.1098 3.15763C18.8469 2.12611 17.2714 1.33796 15.3835 0.794451ZM2.26393 0.794451C1.52282 1.00757 0.828873 1.2585 0.181963 1.54728C0.828873 1.2585 1.52295 1.00757 2.26393 0.794451ZM23.9397 12.2635C23.9397 14.2471 23.6136 15.9987 22.9616 17.5195C22.3234 19.0416 21.3729 20.3178 20.1096 21.3493C18.8468 22.3959 17.2712 23.1828 15.3835 23.7125C13.5093 24.256 11.3295 24.5271 8.84412 24.5271C8.80528 24.5271 8.76657 24.5271 8.72785 24.5271C8.76657 24.5271 8.80528 24.5271 8.84412 24.5271C11.3296 24.5271 13.5094 24.256 15.3835 23.7137C17.2714 23.1828 18.8469 22.3959 20.1098 21.3493C21.3729 20.3178 22.3237 19.0416 22.9619 17.5195C23.6136 15.9987 23.9397 14.2471 23.9397 12.2635ZM0 22.8739C0.698234 23.1992 1.45296 23.4792 2.26393 23.7137C4.10605 24.2396 6.22181 24.5107 8.61159 24.5271C6.22181 24.5107 4.10592 24.2396 2.26393 23.7125C1.45296 23.4792 0.698234 23.1992 0 22.8739Z" fill="rgb(235,240,244)" fill-rule="nonzero" transform="matrix(1,0,0,-1,73.9527,42.2871)" />
			<path id="path90" d="M15.7468 0C13.2227 0 10.9806 0.267339 9.01916 0.813366L9.01638 0.814622L9.01462 0.815878C7.07036 1.37452 5.41803 2.19294 4.07478 3.27868L4.07276 3.2812L4.07188 3.2812C2.72938 4.38082 1.70681 5.74148 1.02232 7.34047C0.336195 8.94072 1.41528e-07 10.7705 1.41528e-07 12.8121C-0.000252065 14.8285 0.336574 16.6444 1.02232 18.2446L1.02169 18.2421C1.70555 19.855 2.7285 21.2169 4.07276 22.3039C5.41639 23.4048 7.06961 24.2295 9.01462 24.7894L9.01563 24.7894C10.9782 25.3505 13.2217 25.6254 15.7468 25.6254C18.2721 25.6254 20.5024 25.3505 22.4392 24.7894L22.4345 24.7906C24.3817 24.2446 26.0309 23.4249 27.3628 22.3215L27.36 22.324C28.691 21.237 29.7009 19.8814 30.3711 18.2812L30.3693 18.285C31.0556 16.6835 31.3919 14.855 31.3918 12.8121C31.3919 10.7705 31.0556 8.94072 30.3693 7.34047L30.3711 7.34426C29.701 5.74527 28.6922 4.38335 27.3628 3.28373L27.36 3.2812C26.0292 2.19419 24.3831 1.37452 22.4382 0.815878L22.4384 0.815878L22.4355 0.814622C20.5001 0.267334 18.271 0 15.7468 0M9.16657 1.343C11.0681 0.813366 13.2614 0.548549 15.7468 0.548549C15.8072 0.548549 15.8673 0.548544 15.9273 0.549805C18.3378 0.562416 20.4575 0.825976 22.2861 1.343C24.174 1.8865 25.7495 2.67465 27.0125 3.70618C28.2755 4.75284 29.2263 6.03529 29.8645 7.55735C30.2595 8.47917 30.5348 9.48548 30.6905 10.5763C30.7918 11.2862 30.8423 12.0315 30.8423 12.8121C30.8423 14.7957 30.5162 16.5473 29.8645 18.0681C29.2263 19.5901 28.2755 20.8663 27.0125 21.8978C25.7495 22.9445 24.174 23.7314 22.2861 24.2623C20.4121 24.8045 18.2323 25.0756 15.7468 25.0756C15.7079 25.0756 15.6692 25.0756 15.6305 25.0756C15.5917 25.0756 15.5529 25.0756 15.5142 25.0756C13.1245 25.0592 11.0087 24.7881 9.16657 24.2623C8.3556 24.0277 7.60088 23.7478 6.90265 23.4224C5.97566 22.9886 5.14817 22.4741 4.42005 21.8777C3.17339 20.8701 2.22459 19.6229 1.57377 18.1349C1.55814 18.0996 1.54262 18.0643 1.52736 18.0277C1.51715 18.0038 1.50707 17.9798 1.49698 17.9558C0.865326 16.4527 0.549307 14.7377 0.549307 12.8121C0.549307 10.8297 0.87541 9.07816 1.52736 7.55735C2.17932 6.03529 3.14351 4.75284 4.42005 3.70618C5.19546 3.07945 6.0836 2.54223 7.08461 2.09583C7.73152 1.80705 8.42547 1.55611 9.16657 1.343Z" fill="rgb(235,240,244)" fill-rule="nonzero" transform="matrix(1,0,0,-1,67.05,42.8359)" />
		</g>
	</g>
	<g id="g92">
		<g id="g94">
			<path id="path100" d="M30.5736 0L24.2584 0L3.68612 13.7793L3.68612 0L0 0L0 29.0895L3.68612 29.0895L3.68612 16.3569L23.7968 29.0895L29.3441 29.0895L7.98271 15.1097L30.5736 0ZM3.13656 14.8096L24.4248 0.548549L28.764 0.548549L21.5522 5.372L6.98699 15.1148L27.5017 28.5397L23.957 28.5397L3.13656 15.3594L3.13656 28.5397L0.549424 28.5397L0.549424 0.548549L3.13656 0.548549L3.13656 14.8096Z" fill="rgb(235,240,244)" fill-rule="nonzero" transform="matrix(1,0,0,-1,110.368,44.5469)" />
			<path id="path102" d="M28.2146 0L23.8754 0L2.58714 14.261L23.8754 0L28.2146 0ZM2.58714 0L0 0L0 27.9912L2.58714 27.9912L0 27.9912L0 0L2.58714 0ZM21.0028 4.82345L6.43745 14.5662L26.9523 27.9912L6.43757 14.5662L21.0028 4.82345Z" fill="rgb(235,240,244)" fill-rule="nonzero" transform="matrix(1,0,0,-1,110.917,43.999)" />
			<path id="path104" d="M28.2146 0L23.8754 0L2.58714 14.261L2.58714 0L0 0L0 27.9912L2.58714 27.9912L2.58714 14.8108L23.4075 27.9912L26.9523 27.9912L6.43745 14.5662L21.0028 4.82345L28.2146 0M3.17188 14.5296L24.0431 0.54983L26.405 0.54983L5.442 14.5712L25.1087 27.4414L23.5664 27.4414L3.17188 14.5296M0.549313 27.4414L0.549313 0.54983L2.03784 0.54983L2.03784 15.29L2.03784 27.4414L0.549313 27.4414Z" fill="rgb(235,240,244)" fill-rule="nonzero" transform="matrix(1,0,0,-1,110.917,43.999)" />
		</g>
	</g>
	<g id="g106">
		<g id="g108">
			<path id="path114" d="M34.1046 0L30.406 0L30.406 0.548549L33.198 0.548549L18.5498 28.5397L15.5548 28.5397L0.907944 0.548549L3.69862 0.548549L7.54981 7.92308L26.5561 7.92308L29.0857 3.0782L30.406 0.548549L30.406 0L30.0731 0L26.2232 7.37327L7.88272 7.37327L4.03152 0L0 0L15.2232 29.0895L18.8827 29.0895L34.1046 0Z" fill="rgb(235,240,244)" fill-rule="nonzero" transform="matrix(1,0,0,-1,142.713,44.5469)" />
			<path id="path116" d="M32.29 0L29.4981 0L29.4993 0L32.29 0ZM29.4981 0L28.1778 2.52965L29.4981 0L29.4993 0L29.4981 0ZM2.79067 0L0 0L2.79067 0Z" fill="rgb(235,240,244)" fill-rule="nonzero" transform="matrix(1,0,0,-1,143.621,43.999)" />
			<path id="path118" d="M16.5221 0L0 0L8.27112 15.8083L16.5221 0M8.26985 14.6229L0.907943 0.549805L15.6154 0.549805L8.26985 14.6229Z" fill="rgb(235,240,244)" fill-rule="nonzero" transform="matrix(1,0,0,-1,151.505,34.2812)" />
			<path id="path120" d="M16.5221 0L8.27112 15.8083L16.5221 0ZM0 0L8.27112 15.8083L0 0Z" fill="rgb(235,240,244)" fill-rule="nonzero" transform="matrix(1,0,0,-1,151.505,34.2812)" />
			<path id="path122" d="M32.29 0L17.6418 27.9912L32.29 0ZM2.79067 0L6.64186 7.37453L25.6481 7.37453L28.1778 2.52965L25.6481 7.37453L6.64186 7.37453L2.79067 0M0 0L14.6469 27.9912L0 0Z" fill="rgb(235,240,244)" fill-rule="nonzero" transform="matrix(1,0,0,-1,143.621,43.999)" />
			<path id="path124" d="M32.29 0L29.4993 0L29.9848 0.254743L29.4993 0L29.4981 0L28.1778 2.52965L25.6481 7.37453L6.64186 7.37453L2.79067 0L0 0L14.6469 27.9912L17.6418 27.9912L32.29 0ZM29.831 0.54983L31.3821 0.54983L17.3089 27.4414L14.9798 27.4414L0.907943 0.54983L2.45776 0.54983L6.30896 7.92433L25.9811 7.92433L29.831 0.54983Z" fill="rgb(235,240,244)" fill-rule="nonzero" transform="matrix(1,0,0,-1,143.621,43.999)" />
			<path id="path126" d="M18.3367 0L0 0L8.6923 16.6128L9.17906 17.5448L18.3367 0M0.907943 0.54983L17.43 0.54983L9.17906 16.3581L8.6923 16.1047L9.17906 16.3581L0.907943 0.54983Z" fill="rgb(235,240,244)" fill-rule="nonzero" transform="matrix(1,0,0,-1,150.597,34.8311)" />
		</g>
	</g>
	<g id="g128">
		<g id="g130">
			<path id="path136" d="M30.2093 0L25.6166 0L16.6053 12.0403C16.3152 12.0227 16.0214 12.0088 15.7238 11.9987L15.7251 11.9987C15.3241 11.9849 14.9104 11.9786 14.483 11.9786L3.64438 11.9786L3.64438 0L0 0L0 29.0895L14.483 29.0895C16.6456 29.0882 18.5082 28.918 20.0832 28.5662L20.0782 28.5674C21.6494 28.2307 22.9596 27.7074 24.0012 26.976C25.0529 26.2623 25.8423 25.3417 26.3329 24.2408C26.8171 23.1526 27.0517 21.8979 27.0517 20.4931C27.0517 19.3997 26.9079 18.3985 26.6128 17.4956C26.3165 16.5927 25.8663 15.7881 25.2673 15.0996L25.266 15.0996L25.2648 15.0984C24.6595 14.4098 23.8777 13.8411 22.9369 13.3871C22.2194 13.0404 21.4086 12.7604 20.5044 12.541L30.2093 0M22.029 5.71122L25.8915 0.548549L29.0895 0.548549L19.5359 12.8941C21.9798 13.3556 23.7528 14.2118 24.8524 15.4603C25.9533 16.7238 26.5031 18.401 26.5031 20.4931C26.5031 21.8373 26.2787 23.0126 25.831 24.0176C25.3821 25.0214 24.6696 25.8575 23.691 26.5233C22.7276 27.2017 21.4842 27.7049 19.9634 28.0302C18.4426 28.3695 16.6154 28.5397 14.483 28.5397L0.548549 28.5397L0.548549 0.548549L3.09584 0.548549L3.09584 12.5271L14.483 12.5271C14.9041 12.5271 15.3115 12.5347 15.7062 12.5473C15.7553 12.5498 15.8045 12.5511 15.8524 12.5536C16.1967 12.5662 16.5347 12.5851 16.8663 12.6091L22.029 5.71122Z" fill="rgb(235,240,244)" fill-rule="nonzero" transform="matrix(1,0,0,-1,183.803,44.5469)" />
			<path id="path138" d="M28.541 0L25.343 0L21.4804 5.16267L25.343 0L28.541 0ZM2.54729 0L0 0L0 27.9912L13.9344 27.9912C16.0668 27.9912 17.894 27.8209 19.4149 27.4817C20.9357 27.1563 22.179 26.6532 23.1425 25.9748C24.121 25.3089 24.8335 24.4729 25.2824 23.4691C25.7301 22.4641 25.9546 21.2888 25.9546 19.9445C25.9546 21.2888 25.7301 22.4641 25.2824 23.4691C24.8335 24.4729 24.121 25.3089 23.1425 25.9735C22.179 26.6532 20.9357 27.1563 19.4149 27.4817C17.894 27.8209 16.0668 27.9912 13.9344 27.9912L0 27.9912L0 0L2.54729 0M15.3039 12.005C15.6481 12.0176 15.9861 12.0366 16.3178 12.0605C15.9861 12.0366 15.6481 12.0176 15.3039 12.005Z" fill="rgb(235,240,244)" fill-rule="nonzero" transform="matrix(1,0,0,-1,184.351,43.999)" />
			<path id="path140" d="M8.59646 0L0 0L0 11.2459L8.67843 11.2459C10.9193 11.2459 12.807 11.1715 14.3417 11.0214C15.8903 10.8852 17.14 10.6141 18.0895 10.2068C19.0403 9.79949 19.7263 9.22193 20.1475 8.4754C20.5687 7.74148 20.7793 6.77807 20.7793 5.58261C20.7793 4.37328 20.5611 3.40228 20.1273 2.66962C19.7062 1.94957 19.0138 1.38587 18.0492 0.978557C17.0845 0.585114 15.8285 0.319036 14.2799 0.184106C12.7314 0.0617857 10.8373 0 8.59646 0M0.548549 10.6961L0.548549 0.549805L8.59646 0.549805C10.8272 0.549805 12.7099 0.61034 14.2371 0.731399L14.232 0.731399C15.7415 0.862546 16.947 1.12233 17.8348 1.48425C18.2774 1.67088 18.6456 1.88902 18.9445 2.1324C19.2446 2.37704 19.4767 2.64566 19.6532 2.94705L19.6544 2.94956C19.8373 3.25851 19.9823 3.62925 20.0794 4.06809C20.1778 4.50567 20.2295 5.0101 20.2295 5.58261C20.2295 6.14755 20.179 6.64944 20.0845 7.08449C19.9886 7.52081 19.8487 7.89155 19.6709 8.20176L19.6696 8.20427L19.6683 8.20555C19.4905 8.52081 19.2597 8.79823 18.9634 9.04791C18.6671 9.29633 18.3064 9.51576 17.8739 9.70113C17.0025 10.0757 15.8033 10.343 14.2938 10.4741L14.2913 10.4741L14.2888 10.4754C12.7793 10.6217 10.9067 10.6961 8.67843 10.6961L0.548549 10.6961Z" fill="rgb(235,240,244)" fill-rule="nonzero" transform="matrix(1,0,0,-1,186.898,29.6367)" />
			<path id="path142" d="M0 0C1.54855 0.13493 2.80453 0.401008 3.76922 0.794451C4.73391 1.20176 5.42621 1.76547 5.8474 2.48551C6.28119 3.21817 6.49937 4.18917 6.49937 5.3985C6.49937 4.18917 6.28245 3.21817 5.8474 2.48551C5.42621 1.76547 4.73391 1.20176 3.76922 0.794451C2.80453 0.401008 1.54855 0.13493 0 0Z" fill="rgb(235,240,244)" fill-rule="nonzero" transform="matrix(1,0,0,-1,201.178,29.4531)" />
			<path id="path144" d="M25.9937 0L16.4401 12.3455L25.9937 0ZM0 0L0 11.9786L11.3871 11.9786C11.8083 11.9786 12.2156 11.9861 12.6103 11.9987C12.6595 12.0012 12.7087 12.0025 12.7566 12.005C12.7087 12.0025 12.6595 12.0012 12.6103 11.9987C12.2156 11.9861 11.8083 11.9786 11.3871 11.9786L0 11.9786L0 0ZM0 11.9786L0 11.43L0 11.9786ZM18.9331 5.16267L13.7705 12.0605L18.9331 5.16267Z" fill="rgb(235,240,244)" fill-rule="nonzero" transform="matrix(1,0,0,-1,186.898,43.999)" />
			<path id="path146" d="M28.541 0L25.343 0L21.4804 5.16267L16.3178 12.0605C15.9861 12.0366 15.6481 12.0176 15.3039 12.005C15.256 12.0025 15.2068 12.0012 15.1576 11.9987C14.7629 11.9861 14.3556 11.9786 13.9344 11.9786L2.54729 11.9786L2.54729 0L0 0L0 27.9912L13.9344 27.9912C16.0668 27.9912 17.894 27.8209 19.4149 27.4817C20.9357 27.1563 22.179 26.6532 23.1425 25.9735C24.121 25.3089 24.8335 24.4729 25.2824 23.4691C25.7301 22.4641 25.9546 21.2888 25.9546 19.9445C25.9546 17.8525 25.4048 16.1753 24.3039 14.9117C23.2043 13.6633 21.4312 12.807 18.9874 12.3455L28.541 0M16.5788 12.6292L25.6179 0.54983L27.4212 0.54983L18.0038 12.7188L18.8852 12.8852C20.0706 13.1097 21.0794 13.4262 21.9104 13.8285C22.7427 14.2308 23.3972 14.715 23.8915 15.2762L23.889 15.2736C24.3896 15.8487 24.7654 16.5145 25.0201 17.2888C25.2736 18.063 25.4048 18.947 25.4048 19.9445C25.4048 21.2282 25.1904 22.3241 24.7805 23.2446C24.3732 24.1538 23.7377 24.9041 22.8335 25.5195L22.8297 25.522L22.8259 25.5246C21.9407 26.1501 20.7679 26.6305 19.3001 26.9445L19.2963 26.9458L19.2951 26.9458C17.8272 27.2736 16.0378 27.4414 13.9344 27.4414L0.549805 27.4414L0.549805 0.54983L1.99748 0.54983L1.99748 11.9786L1.99748 12.5284L13.9344 12.5284C14.3505 12.5284 14.7516 12.5347 15.1374 12.5486L15.1387 12.5486C15.5258 12.5612 15.9054 12.5813 16.2787 12.6078L16.5788 12.6292Z" fill="rgb(235,240,244)" fill-rule="nonzero" transform="matrix(1,0,0,-1,184.351,43.999)" />
			<path id="path148" d="M8.59646 0C10.8373 0 12.7314 0.0617857 14.2799 0.184106C12.7327 0.0617857 10.8373 0 8.59646 0ZM0 0L0 11.2459L8.67843 11.2459C10.9193 11.2459 12.807 11.1715 14.3417 11.0214C15.8903 10.8852 17.14 10.6141 18.0895 10.2068C19.0403 9.79949 19.7263 9.22193 20.1475 8.4754C20.5687 7.74148 20.7793 6.77807 20.7793 5.58261C20.7793 6.77807 20.5687 7.74148 20.1475 8.4754C19.7263 9.22193 19.0403 9.79949 18.0895 10.2068C17.14 10.6141 15.8903 10.8852 14.3417 11.0214C12.807 11.1715 10.9193 11.2459 8.67843 11.2459L0 11.2459L0 0Z" fill="rgb(235,240,244)" fill-rule="nonzero" transform="matrix(1,0,0,-1,186.898,29.6367)" />
			<path id="path150" d="M9.14627 0L0 0L0 12.343L9.22823 12.343C11.4817 12.343 13.3846 12.2686 14.9445 12.1173L14.9394 12.1173C16.5258 11.9773 17.826 11.7011 18.8562 11.2598C19.3732 11.0378 19.831 10.7655 20.2207 10.4376C20.6103 10.1097 20.9331 9.72508 21.1765 9.29381L21.174 9.2976C21.4161 8.8739 21.5927 8.39596 21.7074 7.86759C21.8234 7.33921 21.8777 6.76041 21.8777 6.13116C21.8777 5.49433 21.8209 4.9092 21.7024 4.37578C21.5826 3.84363 21.401 3.36191 21.15 2.93821L21.1513 2.94074C20.9054 2.52082 20.5813 2.1488 20.1879 1.8285C19.7957 1.50946 19.3354 1.24086 18.8133 1.02018L18.8096 1.01892L18.807 1.01767C17.7679 0.595222 16.4628 0.325361 14.8777 0.185387L14.8751 0.184106L14.8739 0.184106C13.3039 0.0605246 11.3972 0 9.14627 0M0.549805 0.548549L9.14627 0.548549C11.3871 0.548549 13.2825 0.610335 14.8297 0.732655C16.3783 0.867586 17.6343 1.13366 18.599 1.52711C19.5637 1.93442 20.256 2.49812 20.6771 3.21817C21.1122 3.95083 21.3291 4.92183 21.3291 6.13116C21.3291 7.32661 21.1185 8.29002 20.6973 9.02394C20.2761 9.77048 19.5901 10.348 18.6393 10.7554C17.6898 11.1627 16.4401 11.4338 14.8915 11.57C13.3569 11.72 11.4691 11.7944 9.22823 11.7944L0.549805 11.7944L0.549805 0.548549Z" fill="rgb(235,240,244)" fill-rule="nonzero" transform="matrix(1,0,0,-1,186.349,30.1855)" />
		</g>
	</g>
	<g id="g152">
		<g id="g154">
			<path id="path160" d="M114.223 0L110.597 0L110.597 41.1198L0 41.1198L0 44.541L124.207 44.541L124.207 41.1198L114.223 41.1198L114.223 0ZM5.59369 41.6696L111.021 41.4174L111.021 0.548549L113.799 0.548549L113.799 41.4174L123.658 41.4174L123.658 44.2446L5.59369 43.9924L0.549436 43.9924L0.549436 41.6696L5.59369 41.6696Z" fill="rgb(235,240,244)" fill-rule="nonzero" transform="matrix(1,0,0,-1,116.61,44.5469)" />
			<path id="path162" d="M108.205 0L105.427 0L105.427 40.8688L0 41.121L105.553 41.121L105.553 0L108.079 0L108.079 41.121L108.079 40.5712L108.079 41.121L118.064 41.121L118.064 43.4439L0 43.4439L118.064 43.6961L118.064 40.8688L108.205 40.8688L108.205 0Z" fill="rgb(235,240,244)" fill-rule="nonzero" transform="matrix(1,0,0,-1,122.204,43.999)" />
			<path id="path164" d="M5.04425 0L0 0L0 2.32284L5.04425 2.32284L5.04425 1.77301L0.549559 1.77301L0.549559 0.549805L5.04425 0.549805L5.04425 0Z" fill="rgb(235,240,244)" fill-rule="nonzero" transform="matrix(1,0,0,-1,117.16,2.87793)" />
			<path id="path166" d="M108.079 0L105.553 0L105.553 41.121L0 41.121L0 41.6708L106.103 41.6708L106.103 0.54983L107.529 0.54983L107.529 41.121L107.529 41.6708L117.515 41.6708L117.515 42.894L0 42.894L0 43.4439L118.064 43.4439L118.064 41.121L108.079 41.121L108.079 0Z" fill="rgb(235,240,244)" fill-rule="nonzero" transform="matrix(1,0,0,-1,122.204,43.999)" />
		</g>
	</g>
	<g id="g168">
		<g id="g170">
			<path id="path182" d="M0 3.47543L99.8047 3.47543L99.8047 0L0 0L0 3.47543Z" fill="url(#paint_linear_8)" fill-rule="nonzero" transform="matrix(1,0,0,-1,23.7422,59.9951)" />
		</g>
	</g>
	<g id="g184">
		<g id="g186">
			<path id="path198" d="M99.7173 3.42875L0 3.42875L0 0L99.7173 0L99.7173 3.42875Z" fill="url(#paint_linear_9)" fill-rule="nonzero" transform="matrix(1,0,0,-1,114.918,3.42871)" />
		</g>
	</g>
	<g id="g200">
		<g id="g202">
			<path id="path214" d="M0 3.41994L18.6948 3.41994L18.6948 0L0 0L0 3.41994Z" fill="url(#paint_linear_10)" fill-rule="nonzero" transform="matrix(1,0,0,-1,230.921,3.4248)" />
		</g>
	</g>
</svg>
