<svg viewBox="0 0 207 58" xmlns="http://www.w3.org/2000/svg" xmlns:xlink="http://www.w3.org/1999/xlink" width="207.000000" height="58.000000" fill="none" customFrame="#000000">
	<defs>
		<linearGradient id="paint_linear_4" x1="14.0460424" x2="-5.60175037" y1="1.45589924" y2="21.382679" gradientUnits="userSpaceOnUse">
			<stop stop-color="rgb(0,160,255)" offset="0" stop-opacity="1" />
			<stop stop-color="rgb(0,161,255)" offset="0.00659999996" stop-opacity="1" />
			<stop stop-color="rgb(0,190,255)" offset="0.260100007" stop-opacity="1" />
			<stop stop-color="rgb(0,210,255)" offset="0.512199998" stop-opacity="1" />
			<stop stop-color="rgb(0,223,255)" offset="0.760399997" stop-opacity="1" />
			<stop stop-color="rgb(0,227,255)" offset="1" stop-opacity="1" />
		</linearGradient>
		<linearGradient id="paint_linear_5" x1="12.9843817" x2="-15.7489519" y1="5.0099678" y2="5.0099678" gradientUnits="userSpaceOnUse">
			<stop stop-color="rgb(255,224,0)" offset="0" stop-opacity="1" />
			<stop stop-color="rgb(255,189,0)" offset="0.408699989" stop-opacity="1" />
			<stop stop-color="rgb(255,165,0)" offset="0.775399983" stop-opacity="1" />
			<stop stop-color="rgb(255,156,0)" offset="1" stop-opacity="1" />
		</linearGradient>
		<linearGradient id="paint_linear_6" x1="17.0902138" x2="-9.55378723" y1="17.7485943" y2="44.7709351" gradientUnits="userSpaceOnUse">
			<stop stop-color="rgb(255,58,68)" offset="0" stop-opacity="1" />
			<stop stop-color="rgb(195,17,98)" offset="1" stop-opacity="1" />
		</linearGradient>
		<linearGradient id="paint_linear_7" x1="-3.72595549" x2="8.17178345" y1="-23.2107887" y2="-11.144206" gradientUnits="userSpaceOnUse">
			<stop stop-color="rgb(50,160,113)" offset="0" stop-opacity="1" />
			<stop stop-color="rgb(45,167,113)" offset="0.0684999973" stop-opacity="1" />
			<stop stop-color="rgb(21,207,116)" offset="0.476200014" stop-opacity="1" />
			<stop stop-color="rgb(6,231,117)" offset="0.800899982" stop-opacity="1" />
			<stop stop-color="rgb(0,240,118)" offset="1" stop-opacity="1" />
		</linearGradient>
	</defs>
	<rect id="Property 1=googleplay" width="165.600006" height="46.400002" x="0.000000" y="0.000000" transform="matrix(1.25,0,0,-1.25,0,58)" />
	<path id="path14" d="M159.086 0L6.1187 0C2.75494 0 0 2.63589 0 5.85427L0 40.9799C0 44.1983 2.75494 46.8342 6.1187 46.8342L159.086 46.8342C162.45 46.8342 165.205 44.1983 165.205 40.9799L165.205 5.85427C165.205 2.63589 162.45 0 159.086 0Z" fill="rgb(20.732,21.1746,22.3125)" fill-rule="nonzero" transform="matrix(1.25299,0,0,-1.23841,0,58)" />
	<path id="path16" d="M159.086 45.896C161.919 45.896 164.224 43.6904 164.224 40.9799L164.224 5.85427C164.224 3.14374 161.919 0.938147 159.086 0.938147L6.1187 0.938147C3.28574 0.938147 0.980521 3.14374 0.980521 5.85427L0.980521 40.9799C0.980521 43.6904 3.28574 45.896 6.1187 45.896L159.086 45.896ZM159.086 46.8342L6.1187 46.8342C2.75494 46.8342 0 44.1983 0 40.9799L0 5.85427C0 2.63589 2.75494 0 6.1187 0L159.086 0C162.45 0 165.205 2.63589 165.205 5.85427L165.205 40.9799C165.205 44.1983 162.45 46.8342 159.086 46.8342Z" fill="rgb(166,166,166)" fill-opacity="0" fill-rule="nonzero" transform="matrix(1.25299,0,0,-1.23841,0,58)" />
	<g id="g18">
		<path id="path20" d="M68.7306 13.9102C68.7306 14.8879 68.4338 15.6709 67.8489 16.2549C67.1765 16.9472 66.3008 17.2955 65.2276 17.2955C64.2019 17.2955 63.3261 16.9413 62.6077 16.2432C61.8878 15.5348 61.5286 14.6654 61.5286 13.6249C61.5286 12.5843 61.8878 11.7149 62.6077 11.0124C63.3261 10.3084 64.2019 9.95422 65.2276 9.95422C65.7382 9.95422 66.225 10.0581 66.6897 10.2513C67.1528 10.446 67.5298 10.7094 67.8029 11.0343L67.1824 11.652C66.706 11.0973 66.0573 10.8236 65.2276 10.8236C64.4795 10.8236 63.8308 11.0812 63.2801 11.6007C62.7353 12.1218 62.4622 12.7965 62.4622 13.6249C62.4622 14.4532 62.7353 15.1338 63.2801 15.6548C63.8308 16.1685 64.4795 16.432 65.2276 16.432C66.0217 16.432 66.6897 16.1685 67.2166 15.649C67.5639 15.305 67.7614 14.8308 67.8133 14.2249L65.2276 14.2249L65.2276 13.379L68.6772 13.379C68.7188 13.5619 68.7306 13.739 68.7306 13.9102Z" fill="rgb(255,255,255)" fill-rule="nonzero" />
		<path id="path20" d="M67.8489 16.2549C67.1765 16.9472 66.3008 17.2955 65.2276 17.2955C64.2019 17.2955 63.3261 16.9413 62.6077 16.2432C61.8878 15.5348 61.5286 14.6654 61.5286 13.6249C61.5286 12.5843 61.8878 11.7149 62.6077 11.0124C63.3261 10.3084 64.2019 9.95422 65.2276 9.95422C65.7382 9.95422 66.225 10.0581 66.6897 10.2513C67.1528 10.446 67.5298 10.7094 67.8029 11.0343L67.1824 11.652C66.706 11.0973 66.0573 10.8236 65.2276 10.8236C64.4795 10.8236 63.8308 11.0812 63.2801 11.6007C62.7353 12.1218 62.4622 12.7965 62.4622 13.6249C62.4622 14.4532 62.7353 15.1338 63.2801 15.6548C63.8308 16.1685 64.4795 16.432 65.2276 16.432C66.0217 16.432 66.6897 16.1685 67.2166 15.649C67.5639 15.305 67.7614 14.8308 67.8133 14.2249L65.2276 14.2249L65.2276 13.379L68.6772 13.379C68.7188 13.5619 68.7306 13.739 68.7306 13.9102C68.7306 14.8879 68.4338 15.6709 67.8489 16.2549Z" fill-rule="nonzero" stroke="rgb(255,255,255)" stroke-width="0.159999996" />
	</g>
	<g id="g22">
		<path id="path24" d="M76.3581 11.0156L73.1178 11.0156L73.1178 13.2402L76.039 13.2402L76.039 14.0862L73.1178 14.0862L73.1178 16.3108L76.3581 16.3108L76.3581 17.1728L72.2004 17.1728L72.2004 10.1536L76.3581 10.1536L76.3581 11.0156Z" fill="rgb(255,255,255)" fill-rule="nonzero" />
		<path id="path24" d="M73.1178 11.0156L73.1178 13.2402L76.039 13.2402L76.039 14.0862L73.1178 14.0862L73.1178 16.3108L76.3581 16.3108L76.3581 17.1728L72.2004 17.1728L72.2004 10.1536L76.3581 10.1536L76.3581 11.0156L73.1178 11.0156Z" fill-rule="nonzero" stroke="rgb(255,255,255)" stroke-width="0.159999996" />
	</g>
	<g id="g26">
		<path id="path28" d="M81.5142 17.1728L80.5969 17.1728L80.5969 11.0156L78.6094 11.0156L78.6094 10.1536L83.5033 10.1536L83.5033 11.0156L81.5142 11.0156L81.5142 17.1728Z" fill="rgb(255,255,255)" fill-rule="nonzero" />
		<path id="path28" d="M80.5969 17.1728L80.5969 11.0156L78.6094 11.0156L78.6094 10.1536L83.5033 10.1536L83.5033 11.0156L81.5142 11.0156L81.5142 17.1728L80.5969 17.1728Z" fill-rule="nonzero" stroke="rgb(255,255,255)" stroke-width="0.159999996" />
	</g>
	<g id="g30">
		<path id="path32" d="M89.1792 17.1728L89.1792 10.1536L90.095 10.1536L90.095 17.1728L89.1792 17.1728Z" fill="rgb(255,255,255)" fill-rule="nonzero" />
		<path id="path32" d="M89.1792 10.1536L90.095 10.1536L90.095 17.1728L89.1792 17.1728L89.1792 10.1536Z" fill-rule="nonzero" stroke="rgb(255,255,255)" stroke-width="0.159999996" />
	</g>
	<g id="g34">
		<path id="path36" d="M94.6785 17.1728L93.7686 17.1728L93.7686 11.0156L91.7737 11.0156L91.7737 10.1536L96.6735 10.1536L96.6735 11.0156L94.6785 11.0156L94.6785 17.1728Z" fill="rgb(255,255,255)" fill-rule="nonzero" />
		<path id="path36" d="M93.7686 17.1728L93.7686 11.0156L91.7737 11.0156L91.7737 10.1536L96.6735 10.1536L96.6735 11.0156L94.6785 11.0156L94.6785 17.1728L93.7686 17.1728Z" fill-rule="nonzero" stroke="rgb(255,255,255)" stroke-width="0.159999996" />
	</g>
	<g id="g38">
		<path id="path40" d="M107.935 16.2315C107.233 16.9413 106.363 17.2955 105.326 17.2955C104.282 17.2955 103.412 16.9413 102.71 16.2315C102.01 15.5231 101.661 14.6537 101.661 13.6249C101.661 12.596 102.01 11.7266 102.71 11.0182C103.412 10.3084 104.282 9.95422 105.326 9.95422C106.357 9.95422 107.227 10.3084 107.929 11.0241C108.636 11.7383 108.985 12.6018 108.985 13.6249C108.985 14.6537 108.636 15.5231 107.935 16.2315ZM103.389 15.6431C103.917 16.1685 104.56 16.432 105.326 16.432C106.086 16.432 106.734 16.1685 107.257 15.6431C107.784 15.1177 108.051 14.443 108.051 13.6249C108.051 12.8067 107.784 12.132 107.257 11.6066C106.734 11.0812 106.086 10.8177 105.326 10.8177C104.56 10.8177 103.917 11.0812 103.389 11.6066C102.862 12.132 102.595 12.8067 102.595 13.6249C102.595 14.443 102.862 15.1177 103.389 15.6431Z" fill="rgb(255,255,255)" fill-rule="nonzero" />
		<path id="path40" d="M105.326 17.2955C104.282 17.2955 103.412 16.9413 102.71 16.2315C102.01 15.5231 101.661 14.6537 101.661 13.6249C101.661 12.596 102.01 11.7266 102.71 11.0182C103.412 10.3084 104.282 9.95422 105.326 9.95422C106.357 9.95422 107.227 10.3084 107.929 11.0241C108.636 11.7383 108.985 12.6018 108.985 13.6249C108.985 14.6537 108.636 15.5231 107.935 16.2315C107.233 16.9413 106.363 17.2955 105.326 17.2955ZM105.326 16.432C106.086 16.432 106.734 16.1685 107.257 15.6431C107.784 15.1177 108.051 14.443 108.051 13.6249C108.051 12.8067 107.784 12.132 107.257 11.6066C106.734 11.0812 106.086 10.8177 105.326 10.8177C104.56 10.8177 103.917 11.0812 103.389 11.6066C102.862 12.132 102.595 12.8067 102.595 13.6249C102.595 14.443 102.862 15.1177 103.389 15.6431C103.917 16.1685 104.56 16.432 105.326 16.432Z" fill-rule="nonzero" stroke="rgb(255,255,255)" stroke-width="0.159999996" />
	</g>
	<g id="g42">
		<path id="path44" d="M112.45 17.1728L112.45 10.1536L113.563 10.1536L117.025 15.6127L117.065 15.6127L117.025 14.2633L117.025 10.1536L117.941 10.1536L117.941 17.1728L116.985 17.1728L113.36 11.4444L113.32 11.4444L113.36 12.7997L113.36 17.1728L112.45 17.1728Z" fill="rgb(255,255,255)" fill-rule="nonzero" />
		<path id="path44" d="M112.45 10.1536L113.563 10.1536L117.025 15.6127L117.065 15.6127L117.025 14.2633L117.025 10.1536L117.941 10.1536L117.941 17.1728L116.985 17.1728L113.36 11.4444L113.32 11.4444L113.36 12.7997L113.36 17.1728L112.45 17.1728L112.45 10.1536Z" fill-rule="nonzero" stroke="rgb(255,255,255)" stroke-width="0.159999996" />
	</g>
	<path id="path46" d="M32.1748 14.4308C29.3857 14.4308 27.1072 12.3379 27.1072 9.45025C27.1072 6.58605 29.3857 4.4712 32.1748 4.4712C34.9698 4.4712 37.2483 6.58605 37.2483 9.45025C37.2483 12.3379 34.9698 14.4308 32.1748 14.4308ZM32.1748 6.43238C30.6444 6.43238 29.3278 7.67787 29.3278 9.45025C29.3278 11.2461 30.6444 12.4696 32.1748 12.4696C33.7051 12.4696 35.0277 11.2461 35.0277 9.45025C35.0277 7.67787 33.7051 6.43238 32.1748 6.43238ZM21.1178 14.4308C18.3228 14.4308 16.0503 12.3379 16.0503 9.45025C16.0503 6.58605 18.3228 4.4712 21.1178 4.4712C23.9114 4.4712 26.1854 6.58605 26.1854 9.45025C26.1854 12.3379 23.9114 14.4308 21.1178 14.4308ZM21.1178 6.43238C19.586 6.43238 18.2649 7.67787 18.2649 9.45025C18.2649 11.2461 19.586 12.4696 21.1178 12.4696C22.6482 12.4696 23.9648 11.2461 23.9648 9.45025C23.9648 7.67787 22.6482 6.43238 21.1178 6.43238ZM7.96057 12.9043L7.96057 10.788L13.086 10.788C12.9361 9.60539 12.5353 8.73603 11.9208 8.13012C11.1727 7.39833 10.0075 6.58605 7.96057 6.58605C4.80632 6.58605 2.33636 9.09607 2.33636 12.2062C2.33636 15.3162 4.80632 17.8263 7.96057 17.8263C9.66608 17.8263 10.907 17.1691 11.8228 16.3173L13.3354 17.8087C12.0544 19.0147 10.3504 19.9411 7.96057 19.9411C3.63517 19.9411 0 16.471 0 12.2062C0 7.94132 3.63517 4.4712 7.96057 4.4712C10.2984 4.4712 12.0544 5.2264 13.4348 6.64313C14.8494 8.03791 15.2903 9.99909 15.2903 11.5827C15.2903 12.0744 15.2487 12.5267 15.1745 12.9043L7.96057 12.9043ZM61.7623 11.2636C61.3452 12.3774 60.0583 14.4308 57.4369 14.4308C54.8393 14.4308 52.6766 12.4125 52.6766 9.45025C52.6766 6.6607 54.817 4.4712 57.6863 4.4712C60.0063 4.4712 61.3452 5.86598 61.8959 6.67826L60.1741 7.80959C59.5996 6.98122 58.8174 6.43238 57.6863 6.43238C56.5626 6.43238 55.7566 6.94024 55.2401 7.94132L61.9954 10.6972L61.7623 11.2636ZM54.8749 9.60539C54.817 11.5256 56.3875 12.5091 57.5126 12.5091C58.3943 12.5091 59.1424 12.0744 59.3918 11.4524L54.8749 9.60539ZM49.3843 4.77416L51.6049 4.77416L51.6049 19.4098L49.3843 19.4098L49.3843 4.77416ZM45.7477 13.3214L45.6734 13.3214C45.1747 13.9039 44.2232 14.4308 43.0179 14.4308C40.4886 14.4308 38.176 12.2413 38.176 9.43416C38.176 6.64313 40.4886 4.4712 43.0179 4.4712C44.2232 4.4712 45.1747 5.00247 45.6734 5.60254L45.7477 5.60254L45.7477 4.88831C45.7477 2.98421 44.716 1.96118 43.0521 1.96118C41.6954 1.96118 40.8538 2.92714 40.5064 3.73942L38.5753 2.9447C39.1319 1.62456 40.6059 0 43.0521 0C45.6556 0 47.8525 1.5104 47.8525 5.18542L47.8525 14.1278L45.7477 14.1278L45.7477 13.3214ZM43.2079 6.43238C41.6776 6.43238 40.3966 7.69544 40.3966 9.43416C40.3966 11.189 41.6776 12.4696 43.2079 12.4696C44.716 12.4696 45.905 11.189 45.905 9.43416C45.905 7.69544 44.716 6.43238 43.2079 6.43238ZM72.1587 19.4098L66.8477 19.4098L66.8477 4.77416L69.0623 4.77416L69.0623 10.3196L72.1587 10.3196C74.6183 10.3196 77.0303 12.0744 77.0303 14.8655C77.0303 17.655 74.6123 19.4098 72.1587 19.4098ZM72.2166 12.3554L69.0623 12.3554L69.0623 17.374L72.2166 17.374C73.8702 17.374 74.8142 16.0202 74.8142 14.8655C74.8142 13.7327 73.8702 12.3554 72.2166 12.3554ZM85.9067 14.4586C84.3066 14.4586 82.6427 13.7619 81.9584 12.2179L83.9237 11.4056C84.3467 12.2179 85.1245 12.4813 85.9468 12.4813C87.0957 12.4813 88.2609 11.8007 88.2787 10.5992L88.2787 10.4455C87.878 10.6738 87.02 11.0119 85.9646 11.0119C83.848 11.0119 81.6912 9.86298 81.6912 7.71885C81.6912 5.75767 83.4249 4.49462 85.3739 4.49462C86.8642 4.49462 87.6865 5.15761 88.203 5.92891L88.2787 5.92891L88.2787 4.79757L90.4177 4.79757L90.4177 10.4118C90.4177 13.0067 88.4524 14.4586 85.9067 14.4586ZM85.6396 6.43823C84.9152 6.43823 83.9058 6.79242 83.9058 7.67787C83.9058 8.81067 85.1646 9.24536 86.2541 9.24536C87.2293 9.24536 87.6865 9.03314 88.2787 8.7536C88.1051 7.39833 86.922 6.43823 85.6396 6.43823ZM98.2105 14.1381L95.6649 7.7935L95.5892 7.7935L92.9574 14.1381L90.5691 14.1381L94.5234 5.27177L92.2672 0.338084L94.5813 0.338084L100.675 14.1381L98.2105 14.1381ZM78.2475 4.77416L80.4681 4.77416L80.4681 19.4098L78.2475 19.4098L78.2475 4.77416Z" fill="rgb(255,255,255)" fill-rule="nonzero" transform="matrix(1.25299,0,0,-1.23841,61.0635,49.4124)" />
	<g id="g48">
		<path id="path64" d="M0.550693 29.2655C0.201871 28.9055 0 28.3449 0 27.619L0 1.72555C0 0.999618 0.201871 0.439072 0.550693 0.0790339L0.636786 0L15.3526 14.504L15.3526 14.8464L0.636786 29.3504L0.550693 29.2655Z" fill="url(#paint_linear_4)" fill-rule="nonzero" transform="matrix(1.25299,0,0,-1.23841,14.8364,47.1738)" />
	</g>
	<g id="g66">
		<path id="path78" d="M4.89984 0L0 4.83709L0 5.17957L4.90578 10.0167L5.01562 9.95372L10.8254 6.69436C12.4834 5.76938 12.4834 4.24727 10.8254 3.31644L5.01562 0.0629351L4.89984 0Z" fill="url(#paint_linear_5)" fill-rule="nonzero" transform="matrix(1.25299,0,0,-1.23841,34.0728,35.2023)" />
	</g>
	<g id="g80">
		<path id="path88" d="M19.8176 10.1148L14.8019 15.0602L0 0.464039C0.550694 -0.106753 1.44872 -0.175542 2.46996 0.39525L19.8176 10.1148Z" fill="url(#paint_linear_6)" fill-rule="nonzero" transform="matrix(1.25299,0,0,-1.23841,15.5264,47.6506)" />
	</g>
	<g id="g90">
		<path id="path104" d="M19.8176 4.94539L2.46996 14.6649C1.44872 15.2299 0.550694 15.1611 0 14.5903L14.8019 0L19.8176 4.94539Z" fill="url(#paint_linear_7)" fill-rule="nonzero" transform="matrix(1.25299,0,0,-1.23841,15.5264,29)" />
	</g>
</svg>
