<svg viewBox="0 0 207 58" xmlns="http://www.w3.org/2000/svg" xmlns:xlink="http://www.w3.org/1999/xlink" width="207.000000" height="58.000000" fill="none" customFrame="#000000">
	<rect id="Property 1=appstore" width="165.600006" height="46.400002" x="0.000000" y="0.000000" transform="matrix(1.25,0,0,-1.25,0,58)" />
	<path id="path14" d="M159.086 0L6.1187 0C2.75494 0 0 2.63589 0 5.85427L0 40.9799C0 44.1983 2.75494 46.8342 6.1187 46.8342L159.086 46.8342C162.45 46.8342 165.205 44.1983 165.205 40.9799L165.205 5.85427C165.205 2.63589 162.45 0 159.086 0Z" fill="rgb(20.732,21.1746,22.3125)" fill-rule="nonzero" transform="matrix(1.25299,0,0,-1.23841,0,58)" />
	<path id="path16" d="M159.086 45.896C161.919 45.896 164.224 43.6904 164.224 40.9799L164.224 5.85427C164.224 3.14374 161.919 0.938147 159.086 0.938147L6.1187 0.938147C3.28574 0.938147 0.980521 3.14374 0.980521 5.85427L0.980521 40.9799C0.980521 43.6904 3.28574 45.896 6.1187 45.896L159.086 45.896ZM159.086 46.8342L6.1187 46.8342C2.75494 46.8342 0 44.1983 0 40.9799L0 5.85427C0 2.63589 2.75494 0 6.1187 0L159.086 0C162.45 0 165.205 2.63589 165.205 5.85427L165.205 40.9799C165.205 44.1983 162.45 46.8342 159.086 46.8342Z" fill="rgb(166,166,166)" fill-opacity="0" fill-rule="nonzero" transform="matrix(1.25299,0,0,-1.23841,0,58)" />
	<g id="Group">
		<g id="Group">
			<path id="Vector" d="M41.5516 7.63159C41.8005 9.81964 40.9039 11.9758 39.5936 13.5606C38.2262 15.1208 36.0388 16.3142 33.9084 16.1605C33.6295 14.0551 34.709 11.8163 35.9174 10.4504C37.2832 8.90034 39.655 7.71279 41.5516 7.63159ZM44.3912 27.3037C44.3481 22.6653 48.2881 20.3909 48.5259 20.2537L48.5307 20.2509C46.2653 17.0566 42.754 16.6201 41.5201 16.5853C39.7159 16.4017 37.9448 17.0815 36.4976 17.6371C35.5793 17.9896 34.7914 18.292 34.2082 18.292C33.5443 18.292 32.7336 17.977 31.8252 17.6239C30.6373 17.1623 29.2822 16.6357 27.8694 16.6636C24.661 16.7115 21.6594 18.508 20.0132 21.2978C16.6159 26.9862 19.1497 35.3454 22.4046 39.9434C24.0328 42.1952 25.9353 44.7095 28.4256 44.6211C30.8619 44.5239 31.7719 43.1189 34.712 43.1189C36.1993 43.1189 37.15 43.5105 38.0623 43.8862C38.937 44.2465 39.7763 44.5922 41.0194 44.5645C43.6341 44.5239 45.2803 42.3025 46.8515 40.0304C48.7331 37.4494 49.4887 34.9075 49.5187 34.777C49.4572 34.7567 44.4407 32.9051 44.3912 27.3037Z" fill="rgb(255,255,255)" fill-rule="evenodd" />
		</g>
	</g>
	<g id="Group">
		<path id="Vector" d="M79.6494 44.2975L76.2445 44.2975L74.3795 38.6294L67.8967 38.6294L66.12 44.2975L62.8052 44.2975L69.228 25.0009L73.195 25.0009L79.6494 44.2975ZM73.8172 36.2514L72.1306 31.2127C71.9522 30.6979 71.6178 29.4857 71.1246 27.5775L71.0646 27.5775C70.8682 28.3982 70.5518 29.6104 70.1171 31.2127L68.4604 36.2514L73.8172 36.2514Z" fill="rgb(255,255,255)" fill-rule="nonzero" />
		<path id="Vector" d="M96.1667 37.1692C96.1667 39.5356 95.5055 41.4061 94.1832 42.7793C92.9987 44.0016 91.528 44.6121 89.7723 44.6121C87.8773 44.6121 86.5159 43.9538 85.6868 42.6372L85.6269 42.6372L85.6269 49.9669L82.4305 49.9669L82.4305 34.9638C82.4305 33.4761 82.39 31.9492 82.312 30.3832L85.1231 30.3832L85.3015 32.5887L85.3615 32.5887C86.4275 30.927 88.0452 30.0976 90.2161 30.0976C91.9133 30.0976 93.3301 30.7457 94.4635 32.0435C95.5999 33.3427 96.1667 35.0508 96.1667 37.1692ZM92.9103 37.2823C92.9103 35.928 92.5954 34.8115 91.9627 33.9328C91.2716 33.0164 90.3435 32.5582 89.1801 32.5582C88.3915 32.5582 87.6749 32.8134 87.0347 33.3166C86.393 33.8241 85.9732 34.4867 85.7768 35.3074C85.6778 35.6902 85.6284 36.0034 85.6284 36.2499L85.6284 38.5699C85.6284 39.582 85.9492 40.4361 86.5909 41.1335C87.2326 41.831 88.0662 42.179 89.0917 42.179C90.2956 42.179 91.2326 41.7295 91.9028 40.8334C92.5744 39.9358 92.9103 38.7526 92.9103 37.2823Z" fill="rgb(255,255,255)" fill-rule="nonzero" />
		<path id="Vector" d="M112.714 37.1692C112.714 39.5356 112.053 41.4061 110.729 42.7793C109.546 44.0016 108.075 44.6121 106.32 44.6121C104.425 44.6121 103.063 43.9538 102.236 42.6372L102.176 42.6372L102.176 49.9669L98.9793 49.9669L98.9793 34.9638C98.9793 33.4761 98.9388 31.9492 98.8608 30.3832L101.672 30.3832L101.85 32.5887L101.91 32.5887C102.975 30.927 104.593 30.0976 106.765 30.0976C108.461 30.0976 109.877 30.7457 111.014 32.0435C112.146 33.3427 112.714 35.0508 112.714 37.1692ZM109.458 37.2823C109.458 35.928 109.141 34.8115 108.509 33.9328C107.817 33.0164 106.892 32.5582 105.727 32.5582C104.937 32.5582 104.222 32.8134 103.581 33.3166C102.939 33.8241 102.521 34.4867 102.324 35.3074C102.227 35.6902 102.176 36.0034 102.176 36.2499L102.176 38.5699C102.176 39.582 102.497 40.4361 103.135 41.1335C103.777 41.8295 104.611 42.179 105.639 42.179C106.843 42.179 107.78 41.7295 108.45 40.8334C109.122 39.9358 109.458 38.7526 109.458 37.2823Z" fill="rgb(255,255,255)" fill-rule="nonzero" />
		<path id="Vector" d="M131.215 38.886C131.215 40.5274 130.626 41.8629 129.443 42.8938C128.143 44.0205 126.333 44.5831 124.008 44.5831C121.861 44.5831 120.14 44.1828 118.837 43.381L119.578 40.8044C120.981 41.625 122.521 42.0368 124.198 42.0368C125.402 42.0368 126.339 41.7729 127.012 41.248C127.683 40.7231 128.017 40.0185 128.017 39.1398C128.017 38.3568 127.741 37.697 127.188 37.1619C126.638 36.6269 125.719 36.1296 124.435 35.6699C120.942 34.4099 119.197 32.564 119.197 30.1367C119.197 28.5504 119.808 27.2497 121.033 26.2376C122.254 25.2241 123.882 24.718 125.918 24.718C127.734 24.718 129.242 25.024 130.446 25.6344L129.647 28.1545C128.522 27.563 127.251 27.2672 125.828 27.2672C124.704 27.2672 123.825 27.5354 123.195 28.069C122.663 28.546 122.396 29.1275 122.396 29.8162C122.396 30.5789 122.701 31.2097 123.312 31.7056C123.844 32.1638 124.811 32.6597 126.215 33.1947C127.931 33.8632 129.192 34.6448 130.003 35.5409C130.812 36.4341 131.215 37.552 131.215 38.886Z" fill="rgb(255,255,255)" fill-rule="nonzero" />
		<path id="Vector" d="M141.783 32.7034L138.26 32.7034L138.26 39.4589C138.26 41.1772 138.881 42.0356 140.125 42.0356C140.696 42.0356 141.17 41.9877 141.545 41.892L141.633 44.2396C141.004 44.4672 140.174 44.5818 139.147 44.5818C137.885 44.5818 136.899 44.2091 136.186 43.4653C135.477 42.72 135.12 41.4701 135.12 39.7141L135.12 32.7005L133.021 32.7005L133.021 30.3805L135.12 30.3805L135.12 27.8328L138.26 26.9164L138.26 30.3805L141.783 30.3805L141.783 32.7034Z" fill="rgb(255,255,255)" fill-rule="nonzero" />
		<path id="Vector" d="M157.68 37.2258C157.68 39.3646 157.047 41.1205 155.785 42.4937C154.461 43.9074 152.704 44.6121 150.513 44.6121C148.402 44.6121 146.722 43.935 145.468 42.5807C144.215 41.2264 143.588 39.5168 143.588 37.4564C143.588 35.3002 144.233 33.5341 145.527 32.161C146.818 30.7864 148.56 30.0991 150.75 30.0991C152.861 30.0991 154.56 30.7762 155.842 32.132C157.068 33.4471 157.68 35.1451 157.68 37.2258ZM154.363 37.3259C154.363 36.0426 154.08 34.9421 153.506 34.0242C152.836 32.9135 151.878 32.3596 150.636 32.3596C149.351 32.3596 148.375 32.915 147.705 34.0242C147.131 34.9435 146.848 36.0615 146.848 37.3839C146.848 38.6671 147.131 39.7677 147.705 40.6841C148.396 41.7948 149.362 42.3487 150.608 42.3487C151.828 42.3487 152.786 41.7832 153.477 40.6551C154.066 39.7198 154.363 38.6077 154.363 37.3259Z" fill="rgb(255,255,255)" fill-rule="nonzero" />
		<path id="Vector" d="M168.07 33.102C167.753 33.0454 167.416 33.0164 167.062 33.0164C165.938 33.0164 165.068 33.4268 164.456 34.2489C163.924 34.9739 163.657 35.8903 163.657 36.9967L163.657 44.2974L160.462 44.2974L160.492 34.7651C160.492 33.1614 160.452 31.7013 160.372 30.3847L163.156 30.3847L163.273 33.0469L163.362 33.0469C163.699 32.1319 164.231 31.3953 164.96 30.8429C165.672 30.3455 166.441 30.0976 167.27 30.0976C167.566 30.0976 167.833 30.1179 168.07 30.1541L168.07 33.102Z" fill="rgb(255,255,255)" fill-rule="nonzero" />
		<path id="Vector" d="M182.365 36.6821C182.365 37.236 182.328 37.7029 182.248 38.0842L172.659 38.0842C172.696 39.4588 173.16 40.5101 174.05 41.2351C174.858 41.8832 175.903 42.208 177.187 42.208C178.606 42.208 179.902 41.9891 181.067 41.5497L181.567 43.6957C180.206 44.2699 178.599 44.5556 176.744 44.5556C174.513 44.5556 172.762 43.9205 171.488 42.6517C170.217 41.383 169.579 39.6792 169.579 37.5419C169.579 35.4438 170.172 33.6965 171.357 32.3031C172.599 30.8154 174.277 30.0715 176.387 30.0715C178.461 30.0715 180.031 30.8154 181.097 32.3031C181.941 33.4848 182.365 34.9464 182.365 36.6821ZM179.317 35.8802C179.338 34.9638 179.13 34.1721 178.696 33.5037C178.143 32.6438 177.293 32.2146 176.149 32.2146C175.104 32.2146 174.254 32.6337 173.605 33.4747C173.073 34.1431 172.756 34.945 172.659 35.8788L179.317 35.8788L179.317 35.8802Z" fill="rgb(255,255,255)" fill-rule="nonzero" />
	</g>
	<g id="Group">
		<g id="Group">
			<path id="Vector" d="M72.7602 13.1299C72.7602 14.8366 72.2309 16.1213 71.1739 16.984C70.1949 17.7801 68.8036 18.1788 67.0015 18.1788C66.1079 18.1788 65.3433 18.1411 64.7031 18.0657L64.7031 8.74078C65.5382 8.61028 66.4378 8.54358 67.4093 8.54358C69.1259 8.54358 70.4198 8.90463 71.2924 9.62673C72.2699 10.4431 72.7602 11.6103 72.7602 13.1299ZM71.1035 13.172C71.1035 12.0656 70.8006 11.2174 70.1949 10.6258C69.5892 10.0356 68.7047 9.73983 67.5397 9.73983C67.045 9.73983 66.6237 9.77173 66.2744 9.83843L66.2744 16.9275C66.4678 16.9565 66.8216 16.9695 67.3358 16.9695C68.5382 16.9695 69.4663 16.6462 70.12 15.9995C70.7736 15.3528 71.1035 14.4103 71.1035 13.172Z" fill="rgb(255,255,255)" fill-rule="nonzero" />
			<path id="Vector" d="M81.5444 14.6205C81.5444 15.6717 81.2341 16.533 80.6134 17.2087C79.9627 17.9033 79.1006 18.2498 78.0241 18.2498C76.9866 18.2498 76.1606 17.9178 75.5444 17.2508C74.9297 16.5852 74.6223 15.7457 74.6223 14.7336C74.6223 13.6751 74.9387 12.8065 75.5743 12.1323C76.21 11.458 77.0646 11.1202 78.1411 11.1202C79.1786 11.1202 80.0122 11.4522 80.6433 12.1178C81.243 12.7645 81.5444 13.5997 81.5444 14.6205ZM79.9147 14.6698C79.9147 14.039 79.7738 13.4982 79.4934 13.0472C79.1636 12.502 78.6943 12.2294 78.0841 12.2294C77.4529 12.2294 76.9732 12.502 76.6433 13.0472C76.3615 13.4982 76.222 14.0477 76.222 14.6973C76.222 15.3281 76.363 15.8689 76.6433 16.3199C76.9837 16.8651 77.4574 17.1377 78.0691 17.1377C78.6688 17.1377 79.1396 16.8607 79.4784 16.3054C79.7693 15.8457 79.9147 15.3005 79.9147 14.6698Z" fill="rgb(255,255,255)" fill-rule="nonzero" />
			<path id="Vector" d="M93.3222 11.2592L91.1108 18.0945L89.6715 18.0945L88.7555 15.1263C88.5231 14.3854 88.3342 13.6488 88.1872 12.918L88.1588 12.918C88.0223 13.6691 87.8334 14.4042 87.5905 15.1263L86.6175 18.0945L85.1617 18.0945L83.0823 11.2592L84.697 11.2592L85.4961 14.5086C85.6895 15.2771 85.8484 16.0094 85.9758 16.7025L86.0043 16.7025C86.1213 16.1312 86.3147 15.4033 86.5875 14.5231L87.5905 11.2606L88.8709 11.2606L89.8319 14.4535C90.0643 15.2322 90.2532 15.9818 90.3987 16.7039L90.4421 16.7039C90.5486 16.0007 90.709 15.251 90.9219 14.4535L91.7795 11.2606L93.3222 11.2606L93.3222 11.2592Z" fill="rgb(255,255,255)" fill-rule="nonzero" />
			<path id="Vector" d="M101.468 18.0948L99.8967 18.0948L99.8967 14.1798C99.8967 12.9734 99.4229 12.3702 98.4724 12.3702C98.0061 12.3702 97.6298 12.5355 97.3374 12.8675C97.0481 13.1996 96.9011 13.5911 96.9011 14.0391L96.9011 18.0933L95.3299 18.0933L95.3299 13.2126C95.3299 12.6123 95.3104 11.9613 95.2729 11.2566L96.6538 11.2566L96.7272 12.3252L96.7707 12.3252C96.9536 11.9932 97.2265 11.7191 97.5848 11.5002C98.0106 11.245 98.4874 11.1159 99.0091 11.1159C99.6688 11.1159 100.217 11.3218 100.654 11.7351C101.197 12.2411 101.468 12.9966 101.468 14L101.468 18.0948Z" fill="rgb(255,255,255)" fill-rule="nonzero" />
			<path id="Vector" d="M105.801 18.0946L104.231 18.0946L104.231 8.12292L105.801 8.12292L105.801 18.0946Z" fill="rgb(255,255,255)" fill-rule="nonzero" />
			<path id="Vector" d="M115.051 14.6205C115.051 15.6717 114.741 16.533 114.12 17.2087C113.469 17.9033 112.606 18.2498 111.531 18.2498C110.492 18.2498 109.666 17.9178 109.051 17.2508C108.436 16.5852 108.129 15.7457 108.129 14.7336C108.129 13.6751 108.445 12.8065 109.081 12.1323C109.717 11.458 110.571 11.1202 111.646 11.1202C112.685 11.1202 113.517 11.4522 114.15 12.1178C114.75 12.7645 115.051 13.5997 115.051 14.6205ZM113.42 14.6698C113.42 14.039 113.279 13.4982 112.999 13.0472C112.67 12.502 112.199 12.2294 111.591 12.2294C110.958 12.2294 110.478 12.502 110.15 13.0472C109.868 13.4982 109.729 14.0477 109.729 14.6973C109.729 15.3281 109.87 15.8689 110.15 16.3199C110.49 16.8651 110.964 17.1377 111.576 17.1377C112.175 17.1377 112.645 16.8607 112.984 16.3054C113.276 15.8457 113.42 15.3005 113.42 14.6698Z" fill="rgb(255,255,255)" fill-rule="nonzero" />
			<path id="Vector" d="M122.656 18.0947L121.245 18.0947L121.128 17.3073L121.084 17.3073C120.602 17.9352 119.913 18.2498 119.02 18.2498C118.353 18.2498 117.813 18.0425 117.407 17.6307C117.038 17.2566 116.854 16.7911 116.854 16.2387C116.854 15.4035 117.213 14.7669 117.937 14.3261C118.66 13.8853 119.677 13.6693 120.985 13.6794L120.985 13.5518C120.985 12.6514 120.497 12.2019 119.518 12.2019C118.821 12.2019 118.206 12.3715 117.675 12.7079L117.356 11.7103C118.012 11.3174 118.824 11.1202 119.78 11.1202C121.627 11.1202 122.554 12.0627 122.554 13.9477L122.554 16.4649C122.554 17.1478 122.588 17.6916 122.656 18.0947ZM121.024 15.7457L121.024 14.6915C119.291 14.6625 118.425 15.1222 118.425 16.069C118.425 16.4257 118.524 16.6925 118.726 16.8709C118.928 17.0492 119.186 17.1377 119.494 17.1377C119.839 17.1377 120.161 17.0318 120.455 16.8216C120.75 16.6099 120.931 16.3416 120.999 16.0125C121.015 15.9385 121.024 15.8486 121.024 15.7457Z" fill="rgb(255,255,255)" fill-rule="nonzero" />
			<path id="Vector" d="M131.584 18.0946L130.189 18.0946L130.116 16.9969L130.072 16.9969C129.627 17.8321 128.868 18.2497 127.802 18.2497C126.951 18.2497 126.242 17.9264 125.679 17.2797C125.117 16.633 124.837 15.7934 124.837 14.7625C124.837 13.6561 125.141 12.76 125.753 12.0756C126.345 11.4376 127.071 11.1186 127.934 11.1186C128.883 11.1186 129.548 11.4275 129.925 12.0466L129.955 12.0466L129.955 8.12292L131.528 8.12292L131.528 16.2531C131.528 16.9186 131.546 17.532 131.584 18.0946ZM129.955 15.212L129.955 14.0723C129.955 13.8751 129.94 13.7156 129.912 13.5938C129.823 13.2284 129.633 12.921 129.344 12.673C129.051 12.4251 128.699 12.3004 128.293 12.3004C127.706 12.3004 127.248 12.5251 126.91 12.9761C126.576 13.427 126.407 14.0027 126.407 14.7059C126.407 15.3816 126.567 15.9297 126.889 16.3517C127.23 16.8012 127.688 17.0259 128.263 17.0259C128.778 17.0259 129.191 16.8389 129.504 16.4633C129.807 16.1168 129.955 15.6992 129.955 15.212Z" fill="rgb(255,255,255)" fill-rule="nonzero" />
			<path id="Vector" d="M145.021 14.6205C145.021 15.6717 144.711 16.533 144.09 17.2087C143.44 17.9033 142.579 18.2498 141.501 18.2498C140.465 18.2498 139.639 17.9178 139.021 17.2508C138.407 16.5852 138.099 15.7457 138.099 14.7336C138.099 13.6751 138.416 12.8065 139.051 12.1323C139.687 11.458 140.542 11.1202 141.62 11.1202C142.656 11.1202 143.491 11.4522 144.12 12.1178C144.72 12.7645 145.021 13.5997 145.021 14.6205ZM143.393 14.6698C143.393 14.039 143.252 13.4982 142.972 13.0472C142.641 12.502 142.173 12.2294 141.561 12.2294C140.931 12.2294 140.452 12.502 140.12 13.0472C139.839 13.4982 139.699 14.0477 139.699 14.6973C139.699 15.3281 139.84 15.8689 140.12 16.3199C140.461 16.8651 140.934 17.1377 141.546 17.1377C142.146 17.1377 142.618 16.8607 142.957 16.3054C143.246 15.8457 143.393 15.3005 143.393 14.6698Z" fill="rgb(255,255,255)" fill-rule="nonzero" />
			<path id="Vector" d="M153.47 18.0948L151.9 18.0948L151.9 14.1798C151.9 12.9734 151.426 12.3702 150.474 12.3702C150.008 12.3702 149.632 12.5355 149.341 12.8675C149.05 13.1996 148.905 13.5911 148.905 14.0391L148.905 18.0933L147.332 18.0933L147.332 13.2126C147.332 12.6123 147.314 11.9613 147.276 11.2566L148.656 11.2566L148.729 12.3252L148.773 12.3252C148.957 11.9932 149.23 11.7191 149.587 11.5002C150.014 11.245 150.489 11.1159 151.013 11.1159C151.671 11.1159 152.219 11.3218 152.656 11.7351C153.2 12.2411 153.47 12.9966 153.47 14L153.47 18.0948Z" fill="rgb(255,255,255)" fill-rule="nonzero" />
			<path id="Vector" d="M164.044 12.3976L162.314 12.3976L162.314 15.7181C162.314 16.562 162.621 16.9839 163.23 16.9839C163.512 16.9839 163.746 16.9607 163.93 16.9129L163.97 18.0656C163.66 18.1787 163.252 18.2353 162.75 18.2353C162.129 18.2353 161.647 18.0526 161.297 17.6872C160.946 17.3218 160.772 16.707 160.772 15.8442L160.772 12.3976L159.74 12.3976L159.74 11.2593L160.772 11.2593L160.772 10.0065L162.312 9.55701L162.312 11.2579L164.042 11.2579L164.042 12.3976L164.044 12.3976Z" fill="rgb(255,255,255)" fill-rule="nonzero" />
			<path id="Vector" d="M172.362 18.0946L170.789 18.0946L170.789 14.2086C170.789 12.9833 170.315 12.37 169.366 12.37C168.638 12.37 168.14 12.7252 167.867 13.4357C167.821 13.5851 167.794 13.7678 167.794 13.9824L167.794 18.0931L166.224 18.0931L166.224 8.12292L167.794 8.12292L167.794 12.2424L167.824 12.2424C168.318 11.4927 169.028 11.1186 169.947 11.1186C170.597 11.1186 171.135 11.3245 171.563 11.7378C172.095 12.2525 172.362 13.0181 172.362 14.0302L172.362 18.0946Z" fill="rgb(255,255,255)" fill-rule="nonzero" />
			<path id="Vector" d="M180.942 14.3535C180.942 14.6261 180.921 14.8552 180.884 15.0422L176.171 15.0422C176.192 15.7179 176.417 16.2327 176.854 16.5894C177.252 16.9084 177.767 17.0679 178.396 17.0679C179.094 17.0679 179.729 16.9606 180.302 16.7445L180.548 17.8001C179.878 18.0814 179.089 18.2221 178.176 18.2221C177.081 18.2221 176.219 17.9103 175.596 17.2868C174.969 16.6633 174.659 15.8267 174.659 14.7769C174.659 13.7459 174.948 12.8875 175.531 12.2031C176.14 11.4723 176.963 11.1069 178.002 11.1069C179.019 11.1069 179.791 11.4723 180.312 12.2031C180.734 12.7831 180.942 13.5009 180.942 14.3535ZM179.443 13.9605C179.455 13.5096 179.351 13.121 179.138 12.7933C178.866 12.3713 178.45 12.1596 177.888 12.1596C177.375 12.1596 176.957 12.3655 176.638 12.7788C176.377 13.1079 176.222 13.5009 176.171 13.9605L179.443 13.9605Z" fill="rgb(255,255,255)" fill-rule="nonzero" />
		</g>
	</g>
</svg>
